<?xml version="1.0" encoding="UTF-8"?>
<svg id="Layer_2" data-name="Layer 2" xmlns="http://www.w3.org/2000/svg" viewBox="0 0 119.69 83.74">
  <defs>
    <style>
      .cls-1 {
        fill: none;
        stroke: #1d1d1b;
        stroke-linecap: round;
        stroke-miterlimit: 10;
        stroke-width: 7px;
      }
    </style>
  </defs>
  <g id="Layer_1-2" data-name="Layer 1">
    <g>
      <path class="cls-1" d="M36.99,17.82c0-7.91,6.41-14.32,14.32-14.32s14.32,6.41,14.32,14.32-6.41,14.32-14.32,14.32"/>
      <path class="cls-1" d="M77.08,24.1c0-10.8,8.76-19.56,19.56-19.56s19.56,8.76,19.56,19.56-8.76,19.56-19.56,19.56"/>
      <path class="cls-1" d="M70.86,54.92c6.99,0,12.66,5.67,12.66,12.66s-5.67,12.66-12.66,12.66-12.66-5.67-12.66-12.66"/>
      <line class="cls-1" x1="51.3" y1="32.14" x2="3.5" y2="32.14"/>
      <line class="cls-1" x1="96.64" y1="43.65" x2="27.4" y2="43.65"/>
      <line class="cls-1" x1="70.86" y1="54.92" x2="11.8" y2="54.92"/>
    </g>
  </g>
</svg>