<?xml version="1.0" encoding="UTF-8"?>
<svg id="Layer_2" data-name="Layer 2" xmlns="http://www.w3.org/2000/svg" viewBox="0 0 13.36 31.07">
  <defs>
    <style>
      .cls-1 {
        fill: none;
      }

      .cls-1, .cls-2 {
        stroke-width: 0px;
      }

      .cls-2 {
        fill: #1d1d1b;
      }
    </style>
  </defs>
  <g id="Layer_1-2" data-name="Layer 1">
    <g id="Group_15" data-name="Group 15">
      <g id="Union_1" data-name="Union 1">
        <path class="cls-1" d="M0,24.39c0-2.52,1.42-4.83,3.68-5.97V1.34c0-.74.6-1.34,1.34-1.34h3.34c.74,0,1.34.6,1.34,1.34v17.08c2.25,1.14,3.68,3.44,3.68,5.97,0,3.69-2.99,6.68-6.68,6.68S0,28.08,0,24.39Z"/>
        <path class="cls-2" d="M6.68,30.74c.86,0,1.69-.17,2.47-.5.76-.32,1.43-.78,2.02-1.36.58-.58,1.04-1.26,1.36-2.02.33-.78.5-1.61.5-2.47,0-1.2-.34-2.36-.97-3.37-.62-.98-1.49-1.78-2.52-2.3l-.18-.09V1.34c0-.55-.45-1-1-1h-3.34c-.55,0-1,.45-1,1v17.29l-.18.09c-1.03.52-1.91,1.32-2.52,2.3-.63,1.01-.97,2.17-.97,3.37,0,.86.17,1.69.5,2.47.32.76.78,1.43,1.36,2.02.58.58,1.26,1.04,2.02,1.36.78.33,1.61.5,2.47.5M6.68,31.07c-3.69,0-6.68-2.99-6.68-6.68,0-2.61,1.5-4.87,3.68-5.97V1.34C3.68.6,4.27,0,5.01,0h3.34C9.09,0,9.69.6,9.69,1.34v17.08c2.18,1.1,3.67,3.36,3.67,5.97,0,3.69-2.99,6.68-6.68,6.68Z"/>
      </g>
      <g id="Ellipse_7" data-name="Ellipse 7">
        <circle class="cls-2" cx="6.68" cy="24.39" r="5.35"/>
        <path class="cls-2" d="M6.68,29.73c-2.95,0-5.35-2.4-5.35-5.35s2.4-5.35,5.35-5.35,5.35,2.4,5.35,5.35-2.4,5.35-5.35,5.35ZM6.68,19.38c-2.76,0-5.01,2.25-5.01,5.01s2.25,5.01,5.01,5.01,5.01-2.25,5.01-5.01-2.25-5.01-5.01-5.01Z"/>
      </g>
      <g id="Rectangle_26" data-name="Rectangle 26">
        <rect class="cls-2" x="5.01" y="1.34" width="3.34" height="23.39" rx=".67" ry=".67"/>
        <path class="cls-2" d="M7.68,24.72h-2c-.37,0-.67-.3-.67-.67V2c0-.37.3-.67.67-.67h2c.37,0,.67.3.67.67v22.05c0,.37-.3.67-.67.67ZM5.68,1.67c-.18,0-.33.15-.33.33v22.05c0,.18.15.33.33.33h2c.18,0,.33-.15.33-.33V2c0-.18-.15-.33-.33-.33h-2Z"/>
      </g>
    </g>
  </g>
</svg>