<?xml version="1.0" encoding="UTF-8"?>
<svg id="Layer_2" data-name="Layer 2" xmlns="http://www.w3.org/2000/svg" viewBox="0 0 37.1 33.48">
  <defs>
    <style>
      .cls-1 {
        fill: #1d1d1b;
        stroke-width: 0px;
      }
    </style>
  </defs>
  <g id="Layer_1-2" data-name="Layer 1">
    <g id="Group_10" data-name="Group 10">
      <g id="Group_2-2" data-name="Group 2-2">
        <g id="Group_1-2" data-name="Group 1-2">
          <g id="Path_3-2" data-name="Path 3-2">
            <path class="cls-1" d="M37.1,16.22c0,1.36-1.1,2.46-2.46,2.46H5.06c-2.8,0-5.06-2.27-5.06-5.06s2.27-5.06,5.06-5.06c.09,0,.18,0,.28,0C6.47,2.82,12.04-.93,17.79.2c3.54.7,6.49,3.14,7.82,6.5,3.57-.87,7.17,1.32,8.03,4.89.12.51.19,1.04.19,1.57,0,.25-.01.5-.04.75,1.28-.47,2.69.19,3.16,1.47.1.27.15.55.15.84h0Z"/>
          </g>
        </g>
      </g>
      <g id="Group_3" data-name="Group 3">
        <g id="Line_15" data-name="Line 15">
          <path class="cls-1" d="M14.86,33.48c-.56,0-1.11-.29-1.4-.82l-.11-.19c-.44-.78-.17-1.76.61-2.2.77-.44,1.76-.17,2.2.61l.11.19c.44.78.17,1.76-.61,2.2-.25.14-.52.21-.79.21ZM12.25,28.88c-.56,0-1.11-.29-1.4-.82l-5.23-9.22c-.44-.78-.17-1.76.61-2.2.77-.44,1.76-.17,2.2.61l5.23,9.22c.44.78.17,1.76-.61,2.2-.25.14-.52.21-.79.21Z"/>
        </g>
        <g id="Line_16" data-name="Line 16">
          <path class="cls-1" d="M34.22,33.48c-.56,0-1.11-.29-1.4-.82l-3.64-6.42c-.44-.78-.17-1.76.61-2.2.77-.44,1.76-.17,2.2.61l3.64,6.42c.44.78.17,1.76-.61,2.2-.25.14-.52.21-.79.21ZM28.54,23.46c-.56,0-1.11-.29-1.4-.82l-2.15-3.8c-.44-.78-.17-1.76.61-2.2.77-.44,1.76-.17,2.2.61l2.15,3.8c.44.78.17,1.76-.61,2.2-.25.14-.52.21-.79.21Z"/>
        </g>
        <g id="Line_17" data-name="Line 17">
          <path class="cls-1" d="M24.54,33.48c-.56,0-1.11-.29-1.4-.82l-5-8.82c-.44-.78-.17-1.76.61-2.2.77-.44,1.76-.17,2.2.61l5,8.82c.44.78.17,1.76-.61,2.2-.25.14-.52.21-.79.21ZM16.82,19.85c-.56,0-1.11-.29-1.4-.82l-.11-.19c-.44-.78-.17-1.76.61-2.2.77-.44,1.76-.17,2.2.61l.11.19c.44.78.17,1.76-.61,2.2-.25.14-.52.21-.79.21Z"/>
        </g>
      </g>
    </g>
  </g>
</svg>