<?xml version="1.0" encoding="UTF-8"?>
<svg id="Layer_2" data-name="Layer 2" xmlns="http://www.w3.org/2000/svg" viewBox="0 0 95.91 94.51">
  <defs>
    <style>
      .cls-1 {
        fill: #fff;
        stroke-width: 0px;
      }
    </style>
  </defs>
  <g id="Layer_1-2" data-name="Layer 1">
    <path class="cls-1" d="M95.88,47.97l-3.21-18.21c-.19-1.04-1.18-1.74-2.22-1.55l-9.03,1.59c-1.77.31-2.96-1.75-1.81-3.13l5.9-7.03c.68-.81.57-2.02-.24-2.7l-14.17-11.88c-.81-.68-2.02-.57-2.7.24l-5.9,7.02c-1.16,1.38-3.4.56-3.4-1.23V1.92c0-1.06-.86-1.92-1.92-1.92h-18.49c-1.06,0-1.92.86-1.92,1.92v9.18c0,1.79-2.24,2.61-3.4,1.23l-5.9-7.02c-.68-.81-1.89-.92-2.7-.24l-14.16,11.88c-.81.68-.92,1.89-.24,2.7l5.89,7.03c1.16,1.38-.04,3.44-1.81,3.13l-9.03-1.59c-1.04-.19-2.04.51-2.22,1.55L.03,47.97c-.19,1.04.51,2.03,1.55,2.22l9.03,1.59c1.77.31,2.18,2.66.63,3.56l-7.94,4.59c-.92.53-1.23,1.7-.7,2.62l9.24,16.02c.53.92,1.7,1.23,2.62.7l7.95-4.59c1.55-.9,3.38.63,2.77,2.32l-3.14,8.62c-.36,1,.15,2.1,1.14,2.46l17.38,6.33c1,.36,2.1-.15,2.46-1.15l3.14-8.62c.62-1.69,3-1.69,3.62,0l3.13,8.62c.36,1,1.46,1.51,2.46,1.15l17.38-6.33c1-.36,1.51-1.46,1.15-2.46l-3.14-8.62c-.62-1.69,1.21-3.22,2.77-2.32l7.94,4.59c.92.53,2.09.22,2.62-.7l9.25-16.02c.53-.92.22-2.08-.7-2.62l-7.94-4.59c-1.56-.9-1.14-3.25.62-3.56l9.04-1.59c1.04-.19,1.74-1.18,1.55-2.22ZM47.95,62.56c-8.45,0-15.31-6.85-15.31-15.31s6.85-15.31,15.31-15.31,15.31,6.85,15.31,15.31-6.86,15.31-15.31,15.31Z"/>
  </g>
</svg>