<?xml version="1.0" encoding="UTF-8"?>
<svg id="Layer_2" data-name="Layer 2" xmlns="http://www.w3.org/2000/svg" viewBox="0 0 41.64 26.27">
  <defs>
    <style>
      .cls-1 {
        fill: #1d1d1b;
        stroke-width: 0px;
      }
    </style>
  </defs>
  <g id="Layer_1-2" data-name="Layer 1">
    <g id="Group_11" data-name="Group 11">
      <g id="Group_4" data-name="Group 4">
        <g id="Group_2-3" data-name="Group 2-3">
          <g id="Group_1-3" data-name="Group 1-3">
            <g id="Path_3-3" data-name="Path 3-3">
              <path class="cls-1" d="M37.1,23.81c0,1.36-1.1,2.46-2.46,2.46H5.06c-2.8,0-5.06-2.27-5.06-5.06s2.27-5.06,5.06-5.06c.09,0,.18,0,.28,0,1.13-5.75,6.7-9.49,12.45-8.37,3.54.7,6.49,3.14,7.82,6.5,3.57-.87,7.17,1.32,8.03,4.89.12.51.19,1.04.19,1.57,0,.25-.01.5-.04.75,1.28-.47,2.69.19,3.16,1.47.1.27.15.55.15.84h0Z"/>
            </g>
          </g>
        </g>
      </g>
      <g id="Group_6" data-name="Group 6">
        <g id="Ellipse_4" data-name="Ellipse 4">
          <path class="cls-1" d="M26.27,23.76c-.87,0-1.73-.13-2.56-.38-3.71-1.13-6.2-4.5-6.2-8.37v-.14c0-.13.11-.22.23-.23.13,0,.23.11.23.23v.13c0,3.67,2.36,6.86,5.87,7.93,1.03.31,2.12.42,3.16.33.12,0,.24.08.25.21.01.13-.08.24-.21.25-.25.02-.51.03-.78.04ZM34.12,18.56s-.06,0-.09-.02c-.12-.05-.17-.18-.12-.3.11-.27.21-.54.3-.81.24-.79.37-1.61.37-2.43,0-3.67-2.36-6.86-5.87-7.93-2.06-.63-4.31-.42-6.22.55-.11.06-.25.01-.31-.1-.06-.11-.01-.25.1-.31,2.01-1.03,4.39-1.25,6.56-.59,3.71,1.13,6.2,4.5,6.2,8.37,0,.86-.13,1.73-.38,2.56-.09.29-.19.58-.31.86-.04.09-.12.14-.21.14Z"/>
        </g>
        <g id="Line_18" data-name="Line 18">
          <path class="cls-1" d="M41.41,20.1s-.05,0-.07,0l-5.73-1.75c-.12-.04-.19-.17-.15-.29.04-.12.17-.19.29-.15l5.73,1.75c.12.04.19.17.15.29-.03.1-.12.16-.22.16Z"/>
        </g>
        <g id="Line_21" data-name="Line 21">
          <path class="cls-1" d="M35.05,10.92c-.08,0-.16-.04-.2-.12-.06-.11-.02-.25.09-.31l5.08-2.89c.11-.06.25-.02.31.09.06.11.02.25-.09.31l-5.08,2.89s-.08.03-.11.03Z"/>
        </g>
        <g id="Line_19" data-name="Line 19">
          <path class="cls-1" d="M29.16,5.75s-.05,0-.07,0c-.12-.04-.19-.17-.15-.29L30.56.16c.04-.12.16-.19.29-.15.12.04.19.17.15.29l-1.62,5.29c-.03.1-.12.16-.22.16Z"/>
        </g>
        <g id="Line_20" data-name="Line 20">
          <path class="cls-1" d="M21.39,6.75c-.08,0-.16-.05-.2-.12l-2.65-5.08c-.06-.11-.01-.25.1-.31.11-.06.25-.02.31.1l2.65,5.08c.06.11.01.25-.1.31-.03.02-.07.03-.11.03Z"/>
        </g>
      </g>
    </g>
  </g>
</svg>