<?xml version="1.0" encoding="UTF-8"?>
<svg id="Layer_2" data-name="Layer 2" xmlns="http://www.w3.org/2000/svg" xmlns:xlink="http://www.w3.org/1999/xlink" viewBox="0 0 174.16 171.38">
  <defs>
    <style>
      .cls-1, .cls-2 {
        fill: none;
      }

      .cls-1, .cls-3 {
        stroke-width: 0px;
      }

      .cls-2 {
        stroke: #1d1d1b;
        stroke-miterlimit: 10;
        stroke-width: 5px;
      }

      .cls-4 {
        clip-path: url(#clippath);
      }

      .cls-3 {
        fill: #1d1d1b;
      }
    </style>
    <clipPath id="clippath">
      <circle class="cls-1" cx="82.5" cy="86.98" r="80"/>
    </clipPath>
  </defs>
  <g id="Layer_1-2" data-name="Layer 1">
    <g class="cls-4">
      <path class="cls-3" d="M44.76,28.11l-15.29,17.75c-.05.06-.09.14-.11.22l-1.46,7.3c-.09.45.46.76.79.44l7.57-7.17s.04-.04.06-.05l19.88-13.21c.31-.21.27-.69-.08-.83l-10.83-4.58c-.19-.08-.41-.03-.54.13Z"/>
      <path class="cls-3" d="M81.82,38.14l-12.39,3.14c-.16.04-.29.15-.36.3l-6.18,13.08c-.06.12-.07.25-.03.38l1.32,4.84c.09.32.44.49.74.36l2.95-1.25c.21-.09.44-.04.6.12l3.45,3.43c.35.35.94.09.94-.4l-.16-13.63c0-.63.88-.77,1.07-.17l1.69,5.28c.08.25.33.41.59.38l6.05-.74c.46-.06.78.45.53.84l-6.28,9.91s-.07.09-.12.13l-3.84,3.15c-.28.23-.7.13-.85-.2l-2.27-5.01c-.21-.46-.87-.42-1.02.06l-1.4,4.46c-.02.06-.05.12-.09.17l-7.24,9.59c-.06.07-.13.13-.22.17l-5.91,2.6c-.39.17-.44.71-.09.95l5.46,3.82c.23.16.3.47.17.72l-1.8,3.24c-.11.2-.33.31-.55.28l-8.27-1.07c-.35-.05-.66.25-.62.61l1.24,11.11c.03.28.27.49.55.49h9.28c.21,0,.4-.12.49-.31l3.94-7.98s.05-.08.08-.12l3.5-3.94s.1-.09.15-.12l4.12-2.19c.18-.09.39-.08.56.03l9.62,6.41c.16.11.25.29.24.48l-.12,2.5c-.03.54.66.79.98.36l1.28-1.67c.06-.08.1-.17.11-.26l.33-2.39c.02-.18.13-.33.29-.41l.94-.48c.41-.21.39-.81-.04-.99l-7.12-3.06c-.12-.05-.22-.15-.28-.27l-1.94-4.16c-.24-.52.38-1.02.83-.67l16.84,13.09c.35.27.85.04.88-.39l.26-3.47c0-.12-.02-.23-.08-.33l-2.11-3.42c-.31-.51.29-1.08.78-.74l6,4.11c.18.12.41.13.6.02l9.44-5.74c.27-.16.62-.07.77.21l3.7,6.81c.14.26.05.58-.2.73l-17.03,10.13s-.1.05-.16.06l-13.63,3.05c-.18.04-.37-.01-.5-.14l-6.94-6.69c-.15-.15-.37-.19-.57-.12l-23.83,8.75c-.18.07-.32.23-.35.42l-5.48,31.07c-.04.22.06.45.25.56l18.96,11.63c.11.07.24.09.36.08l25.21-3.48c.22-.03.45.08.56.28l13.59,24.59c.13.24.42.35.68.25l33.29-12.75c.27-.1.42-.41.33-.68l-4.76-14.5c-.04-.12-.04-.24,0-.36l11.35-31.61c.17-.46-.31-.89-.76-.68l-10.93,5.27c-.19.09-.41.07-.57-.06l-20.64-15.58c-.46-.34-.15-1.07.42-.98l11.66,1.85c.11.02.21.07.3.15l10.96,10.58c.27.26.72.18.88-.16l9.56-20.5c.08-.18.06-.38-.05-.54l-4.08-5.91c-.22-.31-.68-.32-.9,0l-3.7,5.25c-.19.27-.57.31-.82.09l-5.23-4.77c-.27-.25-.23-.69.09-.88l18.79-11.05c.21-.12.48-.09.66.08l22.65,21.81c.36.35.97.06.93-.44l-4.97-59.21c-.01-.15-.08-.28-.2-.38L126.26.13c-.13-.11-.3-.15-.46-.11l-29.36,5.92c-.11.02-.2.07-.28.15l-6.96,6.96c-.16.16-.2.39-.12.59l4.74,11.87c.06.15.05.32-.02.46l-7.22,13.84c-.05.1-.14.18-.24.24l-3.05,1.55c-.37.19-.8-.08-.8-.49v-2.43c0-.36-.34-.62-.68-.53Z"/>
      <polygon class="cls-3" points="56.65 59.96 52.5 63.14 55.35 69.12 52.5 76.06 59.97 73.63 61.54 69.74 58.36 69.66 56.18 65.05 56.65 59.96"/>
      <polygon class="cls-3" points="51.18 67.05 50.4 68.52 47.99 69.07 47.99 73.37 49.58 74.33 52.5 72.18 53.62 67.51 51.18 67.05"/>
      <path class="cls-3" d="M44,48.83l-.16,3.31s0,.06-.02.09l-.5,1.67c-.07.25.12.49.38.47l2.82-.23c.07,0,.15-.03.2-.08l3.23-2.66c.1-.08.15-.21.13-.33l-.23-1.67c-.02-.17-.17-.31-.34-.32l-2.71-.15-.64.34-.58-1.23c-.1-.21-.36-.28-.55-.14l-.89.66c-.09.07-.14.17-.15.28Z"/>
      <path class="cls-3" d="M24.28,43.41l-3.72,9.34s-.02.04-.02.07l-3.65,14.82c-.13.55-.92.52-1.01-.04l-1.27-7.76c-.07-.43-.61-.59-.9-.26l-1.26,1.43c-.11.12-.15.29-.12.45l1.18,5.69c.08.38-.28.71-.65.6l-1.93-.57c-.27-.08-.43-.36-.35-.64l.51-1.81c.14-.49-.44-.86-.83-.54l-6.67,5.57c-.37.31-.93-.01-.84-.49l3.59-20.15s.03-.1.05-.14l4.51-8.88c.03-.06.07-.11.12-.16l24.45-21.24c.17-.15.42-.17.61-.05l6.58,4.08c.27.16.33.52.13.77l-4.84,5.94s-.05.07-.07.11l-3.69,8.16c-.18.39-.73.41-.93.03l-2.55-4.81c-.15-.29-.52-.36-.78-.16l-10.05,7.96c-.08.06-.14.15-.17.25l-1.67,5.43c-.15.5.45.89.84.54l4.56-4.13c.41-.37,1.03.07.83.57Z"/>
      <circle class="cls-2" cx="82.5" cy="86.98" r="80"/>
    </g>
  </g>
</svg>