<?xml version="1.0" encoding="UTF-8"?>
<svg id="Layer_2" data-name="Layer 2" xmlns="http://www.w3.org/2000/svg" xmlns:xlink="http://www.w3.org/1999/xlink" viewBox="0 0 27.14 39.45">
  <defs>
    <style>
      .cls-1 {
        stroke: #fff;
      }

      .cls-1, .cls-2 {
        fill: none;
        stroke-miterlimit: 10;
        stroke-width: .66px;
      }

      .cls-2 {
        stroke: #1d1d1b;
      }

      .cls-3 {
        clip-path: url(#clippath);
      }

      .cls-4 {
        fill: #1d1d1b;
      }

      .cls-4, .cls-5, .cls-6 {
        stroke-width: 0px;
      }

      .cls-5 {
        fill: #fff;
      }

      .cls-6 {
        fill: #e29a39;
      }
    </style>
    <clipPath id="clippath">
      <path class="cls-2" d="M23.01,25.1v3.16c0,.39-.21.76-.55.96l-8.32,4.96c-.35.21-.79.21-1.14,0l-8.33-4.96c-.34-.2-.54-.57-.54-.96v-3.15c0-.3.12-.58.33-.79l8.33-8.33c.21-.21.49-.33.79-.33s.58.12.79.33l8.31,8.32c.21.21.33.49.33.79Z"/>
    </clipPath>
  </defs>
  <g id="Layer_1-2" data-name="Layer 1">
    <g>
      <g>
        <path class="cls-4" d="M26.08,32.35l-11.4,6.79c-.69.41-1.54.41-2.22,0l-11.4-6.79c-.66-.39-1.06-1.1-1.06-1.87V2.17C0,.97.97,0,2.17,0h22.79c1.2,0,2.17.97,2.17,2.17v28.31c0,.77-.4,1.47-1.06,1.87Z"/>
        <path class="cls-1" d="M24.34,31.1l-9.65,5.8c-.69.41-1.54.41-2.22,0l-9.65-5.8c-.66-.39-1.06-1.1-1.06-1.87V4.16c0-1.2.97-2.17,2.17-2.17h19.31c1.2,0,2.17.97,2.17,2.17v25.08c0,.77-.4,1.47-1.06,1.87Z"/>
        <g>
          <g>
            <path class="cls-5" d="M14.17,8.69c-.08,0-.15.07-.15.15v3.11s.02.08.04.1l2.81,2.81c.09.09.25.03.25-.1v-2.53s-.02-.08-.04-.1l-.87-.87c-.06-.06-.06-.15,0-.21l.11-.11c.06-.06.15-.06.21,0l1,1s.04.06.04.1v3.45s.02.08.04.1l2.46,2.46c.09.09.25.03.25-.1v-6.46s-.02-.08-.04-.1l-.99-.99c-.06-.06-.06-.15,0-.21l.11-.11c.06-.06.15-.06.21,0l1.12,1.12s.04.06.04.1v7.38s.02.08.04.1l2.81,2.81c.09.09.25.03.25-.1v-10.44s-.02-.08-.04-.1l-2.16-2.16c-.07-.07-.17-.11-.27-.11h-7.24Z"/>
            <path class="cls-5" d="M5.73,8.69c-.1,0-.2.04-.27.11l-2.16,2.16s-.04.06-.04.1v10.44c0,.13.16.19.25.1l2.81-2.81s.04-.06.04-.1v-7.38s.02-.08.04-.1l1.12-1.12c.06-.06.15-.06.21,0l.11.11c.06.06.06.15,0,.21l-.99.99s-.04.06-.04.1v6.46c0,.13.16.19.25.1l2.46-2.46s.04-.06.04-.1v-3.45s.02-.08.04-.1l1-1c.06-.06.15-.06.21,0l.11.11c.06.06.06.15,0,.21l-.87.87s-.04.06-.04.1v2.53c0,.13.16.19.25.1l2.81-2.81s.04-.06.04-.1v-3.11c0-.08-.07-.15-.15-.15h-7.24Z"/>
          </g>
          <path class="cls-5" d="M15.97,7.23c.13-.03.25.1.21.23l-.15.44c-.02.07-.09.12-.17.12h-4.59c-.08,0-.14-.05-.17-.12l-.15-.44c-.04-.13.07-.26.21-.23.15.04.32.06.5.06.66,0,1.42-.48,1.8-.76.06-.04.15-.04.21,0,.39.28,1.15.76,1.8.76.18,0,.35-.02.5-.06Z"/>
        </g>
        <path class="cls-5" d="M23.15,24.17l-8.64-8.64c-.25-.25-.58-.39-.94-.39s-.69.14-.94.39L3.99,24.18c-.25.25-.39.58-.39.94v3.27c0,.46.25.9.65,1.14l8.65,5.15c.21.12.44.19.68.19s.47-.06.68-.19l8.64-5.15c.4-.24.65-.67.65-1.14v-3.29c0-.36-.14-.69-.39-.94ZM23.38,28.39c0,.4-.22.79-.57,1l-8.64,5.15c-.37.22-.82.22-1.19,0l-8.65-5.15c-.35-.21-.56-.59-.56-1v-3.27c0-.31.12-.6.34-.82l8.65-8.65c.22-.22.51-.34.82-.34s.6.12.82.34l8.64,8.64c.22.22.34.51.34.82v3.29Z"/>
      </g>
      <g>
        <g class="cls-3">
          <rect class="cls-6" x="11.88" y="12.83" width="3.39" height="26.62"/>
        </g>
        <path class="cls-2" d="M23.01,25.1v3.16c0,.39-.21.76-.55.96l-8.32,4.96c-.35.21-.79.21-1.14,0l-8.33-4.96c-.34-.2-.54-.57-.54-.96v-3.15c0-.3.12-.58.33-.79l8.33-8.33c.21-.21.49-.33.79-.33s.58.12.79.33l8.31,8.32c.21.21.33.49.33.79Z"/>
      </g>
    </g>
  </g>
</svg>