<?xml version="1.0" encoding="UTF-8"?>
<svg id="Layer_2" data-name="Layer 2" xmlns="http://www.w3.org/2000/svg" viewBox="0 0 121.77 156.14">
  <defs>
    <style>
      .cls-1 {
        fill: #fff;
        stroke-width: 0px;
      }
    </style>
  </defs>
  <g id="Layer_1-2" data-name="Layer 1">
    <path class="cls-1" d="M116.66,0H5.11C2.28,0,0,2.29,0,5.11v115.79c0,1.88,1.02,3.6,2.68,4.5l55.77,30.13c1.52.81,3.35.81,4.86,0l55.78-30.13c1.65-.9,2.68-2.62,2.68-4.5V5.11c0-2.82-2.29-5.11-5.11-5.11ZM7.99,12.27c0-2.36,1.92-4.27,4.27-4.27h97.24c2.35,0,4.27,1.91,4.27,4.27v54.86l-4-1.64V13.63c0-.9-.73-1.63-1.63-1.63H13.62c-.9,0-1.63.73-1.63,1.63v51.86l-4,1.64V12.27ZM80.35,45.9l-1.12,3.3c-.19.53-.69.89-1.25.89h-34.18c-.57,0-1.07-.36-1.25-.89l-1.13-3.31c-.34-.99.54-1.95,1.55-1.71,1.11.26,2.35.43,3.71.43,4.95,0,10.56-3.57,13.45-5.69.45-.34,1.08-.34,1.54,0,2.89,2.09,8.58,5.69,13.42,5.69,1.37,0,2.61-.16,3.72-.42,1.01-.23,1.87.74,1.54,1.71ZM113.77,115.99c0,1.57-.86,3.01-2.24,3.76l-48.62,26.26c-.64.34-1.33.51-2.03.51s-1.39-.17-2.03-.51l-48.62-26.26c-1.38-.75-2.24-2.19-2.24-3.76v-35.08l4,1.68v33.4c0,.1.06.19.14.24l48.62,26.26c.08.04.18.04.26,0l48.62-26.26c.09-.05.14-.14.14-.24v-33.4l4-1.67v35.07ZM116.03,74.55l-14.93,6.25c-.14.06-.31.06-.45.01l-27.79-11.39c-.14-.06-.31-.06-.45,0l-5.96,2.5c-.3.12-.44.47-.31.77l.24.59c.13.3.48.45.78.32l5.26-2.2c.14-.06.3-.06.45,0l24.3,9.95c.49.2.49.89,0,1.1l-13.03,5.45c-.15.07-.31.07-.45.01l-13-5.33c-.14-.06-.31-.06-.45,0l-3.78,1.59.69,1.69,3.1-1.3c.14-.06.3-.06.45,0l9.51,3.9c.49.2.49.88,0,1.09l-14.92,6.25c-.14.06-.31.06-.45,0l-3.96-1.62-3.95,1.62c-.15.06-.31.06-.45,0l-14.93-6.25c-.48-.21-.48-.89,0-1.09l9.51-3.9c.14-.06.31-.06.45,0l3.1,1.3.69-1.69-3.78-1.59c-.14-.06-.31-.06-.45,0l-13,5.33c-.14.06-.31.06-.45-.01l-13.04-5.45c-.48-.21-.48-.9.01-1.1l24.3-9.95c.14-.06.31-.06.45,0l5.26,2.2c.3.13.65-.02.77-.32l.25-.59c.13-.3-.01-.65-.32-.77l-5.95-2.5c-.15-.06-.31-.06-.45,0l-27.79,11.39c-.14.05-.31.05-.45-.01l-14.93-6.25c-.49-.2-.48-.89,0-1.09l39.3-16.11c.15-.06.31-.05.46.01l11.46,4.8c.37.15.67.45.82.83l3.1,7.57,3.11-7.57c.15-.38.45-.68.82-.83l11.46-4.8c.14-.06.31-.07.45-.01l39.31,16.11c.48.2.49.89,0,1.09Z"/>
  </g>
</svg>