<?xml version="1.0" encoding="UTF-8"?>
<svg id="Layer_2" data-name="Layer 2" xmlns="http://www.w3.org/2000/svg" viewBox="0 0 81.75 118.84">
  <defs>
    <style>
      .cls-1 {
        fill: #1d1d1b;
      }

      .cls-1, .cls-2 {
        stroke-width: 0px;
      }

      .cls-2 {
        fill: #fff;
      }

      .cls-3 {
        fill: none;
        stroke: #fff;
        stroke-miterlimit: 10;
        stroke-width: 2px;
      }
    </style>
  </defs>
  <g id="Layer_1-2" data-name="Layer 1">
    <g>
      <path class="cls-1" d="M78.56,97.45l-34.33,20.46c-2.06,1.23-4.64,1.23-6.7,0L3.19,97.45c-1.98-1.18-3.19-3.32-3.19-5.62V6.54C0,2.93,2.93,0,6.54,0h68.66c3.61,0,6.54,2.93,6.54,6.54v85.29c0,2.31-1.21,4.44-3.19,5.62Z"/>
      <path class="cls-3" d="M73.31,93.68l-29.08,17.46c-2.06,1.23-4.64,1.23-6.7,0l-29.08-17.46c-1.98-1.18-3.19-3.32-3.19-5.62V12.52c0-3.61,2.93-6.54,6.54-6.54h58.16c3.61,0,6.54,2.93,6.54,6.54v75.54c0,2.31-1.21,4.44-3.19,5.62Z"/>
      <g>
        <g>
          <path class="cls-2" d="M42.69,26.19c-.24,0-.44.2-.44.44v9.36c0,.12.05.23.13.31l8.47,8.47c.28.27.75.08.75-.31v-7.61c0-.12-.05-.23-.13-.31l-2.61-2.61c-.17-.17-.17-.45,0-.62l.34-.34c.17-.17.45-.17.62,0l3.01,3.01c.08.08.13.19.13.31v10.4c0,.12.05.23.13.31l7.4,7.4c.28.27.75.08.75-.31v-19.45c0-.12-.05-.23-.13-.31l-2.98-2.98c-.17-.17-.17-.45,0-.62l.34-.34c.17-.17.45-.17.62,0l3.38,3.38c.08.08.13.19.13.31v22.24c0,.12.05.23.13.31l8.48,8.48c.28.28.75.08.75-.31v-31.46c0-.12-.05-.23-.13-.31l-6.51-6.51c-.21-.21-.5-.33-.8-.33h-21.81Z"/>
          <path class="cls-2" d="M17.25,26.19c-.3,0-.59.12-.8.33l-6.51,6.51c-.08.08-.13.19-.13.31v31.46c0,.39.47.59.75.31l8.48-8.48c.08-.08.13-.19.13-.31v-22.24c0-.12.05-.23.13-.31l3.38-3.38c.17-.17.45-.17.62,0l.34.34c.17.17.17.45,0,.62l-2.98,2.98c-.08.08-.13.19-.13.31v19.45c0,.39.47.59.75.31l7.4-7.4c.08-.08.13-.19.13-.31v-10.4c0-.12.05-.23.13-.31l3.01-3.01c.17-.17.45-.17.62,0l.34.34c.17.17.17.45,0,.62l-2.61,2.61c-.08.08-.13.19-.13.31v7.61c0,.39.47.59.75.31l8.47-8.47c.08-.08.13-.19.13-.31v-9.36c0-.24-.2-.44-.44-.44h-21.81Z"/>
        </g>
        <path class="cls-2" d="M48.12,21.77c.41-.09.76.3.62.69l-.45,1.33c-.07.22-.28.36-.5.36h-13.82c-.23,0-.43-.15-.51-.36l-.46-1.34c-.14-.4.22-.79.63-.69.45.11.95.18,1.5.18,2,0,4.27-1.44,5.44-2.3.19-.14.44-.14.63,0,1.17.84,3.47,2.3,5.42,2.3.55,0,1.05-.07,1.5-.17Z"/>
      </g>
      <path class="cls-2" d="M69.75,72.81l-26.03-26.03c-.75-.76-1.76-1.17-2.82-1.17s-2.07.41-2.83,1.17l-26.06,26.06c-.76.76-1.17,1.76-1.17,2.83v9.86c0,1.4.75,2.71,1.95,3.43l26.06,15.52c.63.37,1.34.56,2.04.56s1.42-.19,2.05-.56l26.03-15.52c1.2-.72,1.95-2.03,1.95-3.43v-9.9c0-1.07-.42-2.07-1.17-2.82ZM70.42,85.53c0,1.22-.66,2.37-1.71,3l-26.03,15.52c-1.1.65-2.47.65-3.57,0l-26.07-15.52c-1.05-.63-1.7-1.78-1.7-3v-9.86c0-.94.36-1.81,1.02-2.47l26.06-26.07c.66-.66,1.54-1.02,2.48-1.02s1.81.36,2.47,1.02l26.02,26.03c.66.66,1.03,1.54,1.03,2.47v9.9Z"/>
    </g>
  </g>
</svg>