<?xml version="1.0" encoding="UTF-8"?>
<svg id="Layer_2" data-name="Layer 2" xmlns="http://www.w3.org/2000/svg" viewBox="0 0 104.55 104.55">
  <defs>
    <style>
      .cls-1 {
        stroke-width: 2px;
      }

      .cls-1, .cls-2, .cls-3 {
        stroke: #1d1d1b;
        stroke-miterlimit: 10;
      }

      .cls-1, .cls-3, .cls-4 {
        fill: #fff;
      }

      .cls-2 {
        fill: #1d1d1b;
      }

      .cls-3 {
        stroke-width: 3px;
      }

      .cls-4 {
        stroke-width: 0px;
      }
    </style>
  </defs>
  <g id="Layer_1-2" data-name="Layer 1">
    <g>
      <rect class="cls-2" x="12.14" y="12.14" width="80.27" height="80.27" rx="12" ry="12" transform="translate(-21.65 52.27) rotate(-45)"/>
      <path class="cls-1" d="M98.81,57.31l-11.73,11.73v-5.29l9.08-9.08c1.31-1.32,1.31-3.46,0-4.77l-9.11-9.11-10.38-10.38-22.01-22.01c-.66-.66-1.52-.99-2.38-.99s-1.73.33-2.38.99l-22.01,22.01-10.39,10.39-9.11,9.11c-.63.63-.98,1.48-.98,2.38s.35,1.75.98,2.38l9.08,9.08v5.3l-11.73-11.73c-1.33-1.33-2.08-3.13-2.08-5.03s.74-3.7,2.08-5.04L47.24,5.73c1.34-1.33,3.13-2.08,5.04-2.08s3.7.74,5.03,2.08l41.51,41.51c2.78,2.78,2.78,7.3,0,10.07Z"/>
      <path class="cls-3" d="M75.2,71.09l-18.1-18.1c-2.66-2.66-7.01-2.66-9.66,0l-18.1,18.1c-2.66,2.66-2.66,7.01,0,9.66l18.1,18.1c2.66,2.66,7.01,2.66,9.66,0l18.1-18.1c2.66-2.66,2.66-7.01,0-9.66ZM72,78.44l-17.22,17.22c-1.38,1.38-3.64,1.38-5.02,0l-17.22-17.22c-1.38-1.38-1.38-3.64,0-5.02l17.22-17.22c1.38-1.38,3.64-1.38,5.02,0l17.22,17.22c1.38,1.38,1.38,3.64,0,5.02Z"/>
      <g>
        <g>
          <path class="cls-4" d="M54.09,34.08c-.24,0-.44.2-.44.44v9.36c0,.12.05.23.13.31l8.47,8.47c.28.27.75.08.75-.31v-7.61c0-.12-.05-.23-.13-.31l-2.61-2.61c-.17-.17-.17-.45,0-.62l.34-.34c.17-.17.45-.17.62,0l3.01,3.01c.08.08.13.19.13.31v10.4c0,.12.05.23.13.31l7.4,7.4c.28.27.75.08.75-.31v-19.45c0-.12-.05-.23-.13-.31l-2.98-2.98c-.17-.17-.17-.45,0-.62l.34-.34c.17-.17.45-.17.62,0l3.38,3.38c.08.08.13.19.13.31v22.24c0,.12.05.23.13.31l8.48,8.48c.28.28.75.08.75-.31v-31.46c0-.12-.05-.23-.13-.31l-6.51-6.51c-.21-.21-.5-.33-.8-.33h-21.81Z"/>
          <path class="cls-4" d="M28.65,34.08c-.3,0-.59.12-.8.33l-6.51,6.51c-.08.08-.13.19-.13.31v31.46c0,.39.47.59.75.31l8.48-8.48c.08-.08.13-.19.13-.31v-22.24c0-.12.05-.23.13-.31l3.38-3.38c.17-.17.45-.17.62,0l.34.34c.17.17.17.45,0,.62l-2.98,2.98c-.08.08-.13.19-.13.31v19.45c0,.39.47.59.75.31l7.4-7.4c.08-.08.13-.19.13-.31v-10.4c0-.12.05-.23.13-.31l3.01-3.01c.17-.17.45-.17.62,0l.34.34c.17.17.17.45,0,.62l-2.61,2.61c-.08.08-.13.19-.13.31v7.61c0,.39.47.59.75.31l8.47-8.47c.08-.08.13-.19.13-.31v-9.36c0-.24-.2-.44-.44-.44h-21.81Z"/>
        </g>
        <path class="cls-4" d="M59.52,29.66c.41-.09.76.3.62.69l-.45,1.33c-.07.22-.28.36-.5.36h-13.82c-.23,0-.43-.15-.51-.36l-.46-1.34c-.14-.4.22-.79.63-.69.45.11.95.18,1.5.18,2,0,4.27-1.44,5.44-2.3.19-.14.44-.14.63,0,1.17.84,3.47,2.3,5.42,2.3.55,0,1.05-.07,1.5-.17Z"/>
      </g>
    </g>
  </g>
</svg>