<?xml version="1.0" encoding="UTF-8"?>
<svg id="Layer_2" data-name="Layer 2" xmlns="http://www.w3.org/2000/svg" viewBox="0 0 595.28 841.89">
  <defs>
    <style>
      .cls-1 {
        fill: #fff;
        stroke-width: 0px;
      }
    </style>
  </defs>
  <path class="cls-1" d="M209.91,633.02c-.31-1.97-.86-3.93-.89-5.9-.12-7.97-.15-15.93-.02-23.9.02-1.06.9-2.41,1.79-3.1,20.22-15.63,40.47-31.21,60.79-46.71,1.67-1.27,1.96-2.54,1.77-4.43-2.46-25.43-4.83-50.87-7.28-76.3-1.54-16.02-3.18-32.04-4.79-48.06-.02-.25-.17-.48-.47-1.28-73.18,15.56-146.41,31.14-219.9,46.77-.05-.83-.14-1.65-.14-2.46,0-10.59.04-21.19-.05-31.78-.01-1.7.5-2.63,1.97-3.51,71.87-42.72,143.72-85.49,215.6-128.19,2.14-1.27,2.96-2.6,2.97-5.13.13-29.77.57-59.53.52-89.3-.02-11.44.91-22.63,3.76-33.74,3.3-12.89,6.74-25.71,12.7-37.68,2.94-5.91,6.35-11.5,11.41-15.88,6.27-5.42,11.23-5.32,17.39.26,5.78,5.23,9.46,11.87,12.58,18.86,6.26,14.05,10.23,28.82,13.14,43.86.99,5.11,1.54,10.37,1.6,15.57.37,32.74.56,65.48.73,98.23.01,2.26.62,3.55,2.66,4.76,71.88,42.7,143.72,85.49,215.6,128.2,1.79,1.06,2.31,2.17,2.27,4.12-.22,10.41-.31,20.83-.46,31.24-.01.77-.16,1.53-.27,2.56-73.23-15.62-146.27-31.2-219.68-46.86-.64,5.91-1.27,11.26-1.79,16.63-2.26,23.6-4.55,47.21-6.7,70.82-1.09,11.94-1.77,23.91-2.93,35.84-.45,4.58,1.3,7.36,4.86,10.05,18.88,14.21,37.57,28.67,56.38,42.97,1.77,1.35,2.53,2.71,2.48,4.99-.18,7.61-.05,15.23-.17,22.85-.03,1.88-.58,3.76-.89,5.63h-.53c-.47-.19-.93-.45-1.42-.57-25.51-5.95-51.02-11.93-76.55-17.79-4.53-1.04-8.96-2.46-13.88-1.3-20.48,4.84-41.04,9.35-61.55,14.08-7.39,1.71-14.71,3.71-22.06,5.57h-.53Z"/>
</svg>