<?xml version="1.0" encoding="UTF-8"?>
<svg id="Layer_2" data-name="Layer 2" xmlns="http://www.w3.org/2000/svg" viewBox="0 0 595.28 841.89">
  <defs>
    <style>
      .cls-1 {
        fill: #fff;
        stroke-width: 0px;
      }
    </style>
  </defs>
  <path class="cls-1" d="M503.24,346.74c-2.69,5.82-5.2,11.74-8.16,17.42-1.06,2.03-3.18,3.51-4.86,5.2-11.84,11.87-24.04,23.4-35.43,35.68-11.16,12.04-24.78,14.61-40,12.35-19.41-2.88-36.59-11.45-53.15-21.45-3.86-2.33-7.53-6.36-11.54-6.7-3.93-.33-8.16,3.08-12.28,4.8-19.37,8.1-39.62,12.98-60.44,14.81-17.32,1.52-34.78,2.72-52.13,2.27-33.25-.86-65.84-5.98-96.2-20.64-12.2-5.89-23.66-13.14-30.27-25.53-2.41-4.51-4.03-10.01-4.14-15.09-.46-20.48-.29-40.98-.15-61.46.07-10.24,5.2-18.23,12.33-25.03,11.7-11.16,26.05-17.72,41.12-22.81,24.86-8.4,50.54-12.04,76.68-12.91,4.12-.14,8.24-.35,12.36-.54.24-.01.47-.2,1.05-.45.35-11.1,6.56-19.21,14.29-26.74,12.67-12.35,24.91-25.14,37.51-37.56,7.85-7.74,17.73-10.28,28.49-9.9,14.76.52,28.39,5.26,41.45,11.68,35.77,17.56,65.45,42.9,91.65,72.55,17.61,19.92,33,41.41,43.05,66.19,3.51,8.65,5.36,17.97,8,26.97.18.6.52,1.16.78,1.73v15.17ZM464.14,374.85c-1.81-.14-3.67-.14-5.48-.43-17.67-2.8-33.68-10.06-48.86-19.08-36.45-21.66-66.97-50.04-92.3-83.93-17.89-23.93-32.72-49.42-36.57-80.38-7.3,7.27-14.15,14.45-21.4,21.21-6.03,5.62-8.32,12.31-7.97,20.35.56,12.83,4.55,24.74,10.27,35.97,25.9,50.86,64.47,89.87,113.06,119.19,13.1,7.91,27.15,14,42.53,16.1,7.84,1.07,16.12,1.71,22.39-4.1,8.45-7.84,16.15-16.47,24.33-24.92ZM337.04,379.81c-1-1.08-1.4-1.57-1.85-1.99-11.7-10.63-23.39-21.28-35.16-31.82-.79-.71-2.32-1.03-3.43-.9-13.14,1.51-26.23,3.94-39.41,4.58-30.01,1.46-59.92.09-89.31-6.98-19.65-4.73-38.63-11.13-55.14-23.3-1.43-1.05-2.82-2.14-4.68-3.55,0,10.25.31,19.82-.08,29.37-.4,9.84,3.83,17.05,11.18,22.98,10.51,8.49,22.7,13.63,35.38,17.74,22.78,7.37,46.26,10.5,70.1,11.45,30.86,1.23,61.3-1.53,91.07-10.02,7.07-2.02,13.9-4.89,21.34-7.55ZM488.84,349.41c.2-5.06.89-9.66.48-14.17-1.28-13.97-6.59-26.71-13-39.01-12.71-24.4-29.62-45.69-48.93-65.12-21.49-21.63-45.1-40.51-72.6-54.05-10.25-5.05-20.9-9.26-32.38-10.55-5.16-.58-10.44-.92-15.51,1.4,60.5,60.35,120.76,120.47,181.94,181.49ZM478.31,360.24c-61.37-61.12-121.71-121.23-181.98-181.26-1.85,5.86-1.42,12.3-.22,18.72,2.86,15.29,9.27,29.23,17.25,42.38,25.93,42.69,60.46,76.93,103.1,102.84,14.4,8.75,29.63,15.99,46.72,17.78,4.69.49,9.51-.25,15.13-.45ZM110.01,295.63c.66,1.23.93,1.8,1.26,2.32,4.69,7.46,11.67,12.3,19.21,16.33,26.71,14.27,55.84,19.24,85.55,21.14,14.03.89,28.17.51,42.24.03,9.59-.33,19.14-1.84,29.27-2.88-.74-1.11-1-1.54-1.3-1.94-7.84-10.54-15.79-21.01-23.43-31.69-1.76-2.46-3.43-3.39-6.43-3.38-47.22.1-94.45.07-141.67.07h-4.69ZM110.1,281.6h142.43c-.83-1.68-1.59-2.92-2.08-4.26-3.81-10.4-8.03-20.68-11.09-31.3-1.15-4-2.36-4.89-6.16-4.85-19.05.19-37.93,1.96-56.56,5.87-18.5,3.88-36.52,9.27-52.51,19.87-5.62,3.73-10.76,8.01-14.04,14.67Z"/>
</svg>