<?xml version="1.0" encoding="UTF-8"?>
<svg id="Layer_2" data-name="Layer 2" xmlns="http://www.w3.org/2000/svg" viewBox="0 0 595.28 841.89">
  <defs>
    <style>
      .cls-1 {
        fill: #fff;
        stroke-width: 0px;
      }
    </style>
  </defs>
  <path class="cls-1" d="M341.79,235.08c9.85,2.96,12.72,9.98,12.7,19.53-.15,73.34-.08,146.68-.08,220.03,0,12.91-5.82,18.75-18.69,18.75-60.87,0-121.74,0-182.61,0-12.59,0-18.47-5.93-18.48-18.59,0-73.97.02-147.93-.03-221.9,0-8.2,2.95-14.17,10.93-17.3.93-.36,1.65-2.48,1.65-3.79.09-29.06.07-58.12.07-87.19,0-11.24,4.92-16.17,16.16-16.17,54.13,0,108.27,0,162.4,0,10.99,0,15.97,4.99,15.97,15.99,0,28.81,0,57.63,0,86.44v4.19ZM140.26,364.04c0,37.17,0,74.33,0,111.5,0,9.01,3.16,12.2,12.12,12.2,61.36.01,122.73.01,184.09,0,9.2,0,12.3-3.14,12.3-12.39,0-74.21,0-148.42,0-222.63,0-8.89-3.33-12.23-12.12-12.23-61.24,0-122.48,0-183.72,0-9.56,0-12.68,3.14-12.68,12.79,0,36.92,0,73.84,0,110.75ZM152.63,234.79h22.13c0-16.17.03-32-.07-47.83,0-.9-1.01-1.77-1.49-2.68-1.16-2.23-3.05-4.42-3.26-6.75-.48-5.45-.3-10.97-.11-16.45.22-6.3,4.5-10.68,10.49-11.04,1.74-.1,3.49-.05,5.24-.03,7.74.06,12.06,4.19,12.27,11.94.13,4.99.33,10-.1,14.96-.21,2.4-1.79,4.68-2.78,7.01-.66,1.56-1.95,3.09-1.97,4.65-.17,11.85-.07,23.7-.11,35.55,0,3.04-1.67,4.67-3.58,3.43-.95-.62-1.56-2.43-1.58-3.71-.12-11.35-.07-22.7-.07-34.05,0-1.31,0-2.61,0-3.87h-7.22v48.93h34.82c0-1.63,0-2.98,0-4.33,0-13.72-.04-27.44.03-41.16.01-2.46-.28-4.33-2.52-6.07-1.42-1.11-2.28-3.64-2.39-5.58-.3-5.6-.3-11.23-.04-16.83.31-6.62,4.82-10.72,11.42-10.86,1.5-.03,2.99-.02,4.49,0,7.47.08,11.86,4.27,12.07,11.77.14,5.11.31,10.25-.1,15.33-.18,2.29-1.21,5.02-2.81,6.54-1.7,1.62-2.08,3.07-2.08,5.12.04,14.09.02,28.19.02,42.28,0,1.21,0,2.42,0,3.75h22.36c0-15.41-.03-30.49.03-45.58,0-2.31-.24-4.05-2.33-5.76-1.5-1.23-2.44-3.83-2.57-5.89-.35-5.34-.26-10.72-.08-16.08.25-7.26,4.68-11.4,11.96-11.49,1.25-.01,2.49-.01,3.74,0,7.89.06,12.22,4.33,12.33,12.27.07,4.86.4,9.77-.14,14.58-.29,2.58-2.2,4.97-3.32,7.47-.56,1.25-1.44,2.54-1.45,3.82-.11,12.1-.06,24.2-.07,36.3,0,1.89.19,4.04-2.57,4.05-2.64.01-2.75-1.97-2.74-3.96.02-6.49,0-12.97,0-19.46,0-6.33,0-12.66,0-19.15h-7.2v48.95h34.87v-4.3c0-13.47-.02-26.94.02-40.41,0-2.75.24-5.31-2.76-7.06-1.13-.66-1.96-2.75-1.99-4.22-.15-6.59-.33-13.22.2-19.79.43-5.32,4.83-8.8,10.23-9.07,1.87-.09,3.74-.05,5.61-.03,7.16.1,11.6,4.46,11.76,11.7.11,5.11.33,10.25-.11,15.33-.21,2.38-1.87,4.65-2.88,6.96-.64,1.46-1.86,2.89-1.87,4.35-.14,14.34-.09,28.69-.08,43.03,0,1.18.14,2.37.2,3.46h21.7c.09-1.01.21-1.74.21-2.47,0-29.69.04-59.37-.02-89.06-.01-6.52-2.87-9.19-9.48-9.2-24.45-.02-48.9,0-73.34,0-30.44,0-60.87.01-91.31-.02-2.97,0-6.09.05-7.62,2.86-1.18,2.17-1.9,4.89-1.91,7.37-.13,28.94-.08,57.88-.08,86.81v3.67ZM220.76,185.87v48.98h7.04v-48.98h-7.04ZM301.61,185.86v49.01h7.06v-49.01h-7.06ZM175.74,164.11c4.97-4.37,10.02-6.74,16.32-3.65-1.19-4.68-4.82-6.12-11.66-4.99-3.99.66-5.28,2.86-4.66,8.64ZM216.35,163.92c4.73-4.18,9.88-6.5,16.34-3.5-1.7-4.83-6.65-6.47-12.79-4.72-3.5,1-4.47,3.13-3.56,8.22ZM313.34,160.48c-1.02-4.73-5.3-6.34-11.98-4.93-3.94.83-5.16,3.3-4.02,8.29,4.61-3.92,9.51-6.49,15.99-3.36ZM256.55,163.49c2.7-1.37,5.09-3.14,7.74-3.77,2.7-.64,5.66-.14,8.42-.14-.88-3.79-4.6-5.26-11.43-4.11-3.98.67-5.2,2.77-4.73,8.02Z"/>
  <path class="cls-1" d="M248.55,356.34c-6.65,12-12.94,23.36-19.65,35.48-1.63-5.67-3.23-11.22-4.82-16.77-3.11.93-7.21,12.89-7.06,22.51.14,8.88,3.66,16.31,10.32,22.35-.2.22-.41.44-.61.66-1.08-.43-2.22-.74-3.22-1.31-15.69-8.91-24.61-22.2-25.44-40.38-.71-15.46,3.16-29.83,11.22-43.05.61-1,1.3-1.95,2.68-2.91-2.22,12.51,5.25,22.39,8.09,33.56,2.03-13.03,9.1-23.53,16.28-33.98,5.52-8.04,10.39-16.39,12.79-25.97.14-.54.58-1,1.13-1.92,7.25,9.67,13.33,19.57,17.28,30.66,3.29,9.21,4.66,18.64,1.58,28.18-1.2,3.71-3.1,7.2-5.05,11.6,10.03-8.36,13.71-19.29,16.73-30.57,6.24,2.84,11.55,23.79,10.06,39-1.54,15.79-15.21,33.7-29.02,36.84,12.78-12.6,11.97-26.19,5.83-40.31-.44-.11-.87-.21-1.31-.32-1.16,2.88-2.11,5.87-3.52,8.61-1.37,2.66-3.23,5.07-5.42,7.41,6.68-15.5-.8-27.37-8.86-39.37Z"/>
  <path class="cls-1" d="M334.5,364.43c0,31.18,0,62.36,0,93.55,0,11.37-4.72,16.04-16.17,16.04-49.39,0-98.79,0-148.18,0-10.69,0-15.6-4.85-15.61-15.47,0-58,0-116,0-174,0-1-.25-2.14.14-2.95.47-.97,1.6-2.39,2.27-2.3,1.04.14,2.25,1.21,2.8,2.22.48.87.14,2.19.14,3.31,0,57.75,0,115.5,0,173.25,0,7.98,2.48,10.5,10.48,10.5,49.39.01,98.79.01,148.18,0,8.21,0,10.58-2.44,10.58-10.77,0-62.49,0-124.98,0-187.47,0-8.2-2.24-10.49-10.37-10.49-49.52,0-99.04,0-148.55,0-7.24,0-8.37.97-10.45,7.88-.3.99-1.87,2.26-2.77,2.2-.85-.06-2.17-1.62-2.3-2.65-.68-5.33,3.96-11.21,9.73-12.47,1.93-.42,3.95-.57,5.93-.57,49.39-.03,98.79.06,148.18-.1,9.24-.03,16.21,4.82,16.09,16.01-.34,31.43-.12,62.86-.12,94.29Z"/>
</svg>