<?xml version="1.0" encoding="UTF-8"?>
<svg id="Layer_2" data-name="Layer 2" xmlns="http://www.w3.org/2000/svg" viewBox="0 0 595.28 841.89">
  <defs>
    <style>
      .cls-1 {
        fill: #fff;
        stroke-width: 0px;
      }
    </style>
  </defs>
  <path class="cls-1" d="M431.04,350.94c-.16,12.98-4.57,24.08-13.58,33.16-17.83,17.98-35.63,35.99-53.74,53.69-18.91,18.49-47.43,18.43-66.16-.26-74.27-74.09-148.44-148.28-222.55-222.53-18.64-18.68-18.73-47.28-.25-66.16,17.71-18.1,35.62-36,53.71-53.72,18.88-18.49,47.49-18.42,66.17.22,74.17,74.02,148.22,148.15,222.31,222.24,9.26,9.26,13.92,20.44,14.09,33.35ZM423.1,351.58c.12-11.91-4.76-21.54-13.1-29.87-73-72.9-145.93-145.87-218.88-218.81-1.23-1.23-2.48-2.47-3.8-3.6-11.71-10-25.02-12.7-39.34-7.27-5.3,2.01-10.45,5.47-14.54,9.44-17.73,17.19-35.13,34.73-52.48,52.3-16.02,16.23-15.99,39.53-.15,55.93,2.17,2.24,4.41,4.42,6.61,6.62,71.45,71.45,142.89,142.9,214.34,214.34,16.92,16.91,40.22,17.46,56.97,1.02,17.72-17.38,35.17-35.04,52.68-52.64,7.53-7.57,11.58-16.7,11.69-27.46Z"/>
  <path class="cls-1" d="M163.79,443.42c9.13,0,18.51-4.48,26.43-12.46,13.36-13.45,26.8-26.83,40.22-40.24.88-.88,1.74-2.21,2.78-2.4,1.51-.28,3.72-.25,4.62.65.87.88.82,3.1.51,4.59-.22,1.05-1.52,1.9-2.4,2.78-13.31,13.33-26.62,26.67-39.96,39.96-20.26,20.19-48.73,20.23-68.92.1-17.14-17.09-34.25-34.2-51.34-51.34-19.54-19.6-19.59-48.21-.11-67.79,13.55-13.62,27.16-27.18,40.74-40.77.79-.79,1.53-2.01,2.47-2.21,1.52-.32,3.87-.55,4.61.29.94,1.07.96,3.29.71,4.91-.16,1.03-1.52,1.89-2.4,2.77-13.23,13.24-26.48,26.45-39.69,39.71-17.57,17.62-17.57,40.66.03,58.31,16.91,16.96,33.89,33.86,50.8,50.82,7.94,7.96,17.36,12.35,30.91,12.29Z"/>
  <path class="cls-1" d="M330.68,89.4c-11.28.07-20.66,4.5-28.57,12.49-13.34,13.46-26.79,26.82-40.2,40.22-.88.88-1.75,2.24-2.77,2.4-1.62.25-3.85.2-4.9-.75-.83-.75-.52-3.07-.26-4.61.14-.82,1.26-1.48,1.97-2.18,13.66-13.67,27.31-27.36,41-41,19.43-19.36,47.93-19.42,67.53-.18,1.42,1.4,3.29,2.63,4.04,4.33.66,1.5.73,4.24-.2,5.17-.91.91-3.87.89-5.13.07-2.56-1.68-4.51-4.27-6.85-6.32-7.32-6.43-15.91-9.57-25.67-9.63Z"/>
  <path class="cls-1" d="M430.97,186.16c-.14,8.22-4.27,19.2-13.05,28.13-14.25,14.49-28.71,28.78-43.07,43.16-1.97,1.97-4.14,3.19-6.43.77-2.22-2.36-1.01-4.49.97-6.46,13.42-13.38,26.82-26.79,40.21-40.2,18.21-18.22,18.24-41.28.08-59.43-.88-.88-1.78-1.75-2.62-2.67-1.58-1.7-1.86-3.58-.25-5.34,1.72-1.88,3.72-1.72,5.68-.26,11.14,8.31,18.48,23.42,18.47,42.3Z"/>
  <path class="cls-1" d="M402.77,136.08c-.57.81-1.12,2.45-2.1,2.78-1.32.43-3.46.41-4.4-.4-3.39-2.92-6.63-6.08-9.45-9.54-.82-1-.64-3.74.18-4.87.66-.91,3.67-1.39,4.48-.71,3.77,3.22,7.15,6.88,10.62,10.45.37.39.36,1.15.68,2.29Z"/>
  <path class="cls-1" d="M319.54,272.86c-.87,1.36-1.41,2.66-2.33,3.58-20.33,20.39-40.7,40.74-61.05,61.11-2.4,2.4-4.67,2.44-7.09.02-24.67-24.69-49.34-49.37-74.04-74.04-2.39-2.39-2.5-4.65-.06-7.09,20.38-20.35,40.72-40.73,61.1-61.06,2.8-2.79,4.53-2.58,7.86.75,20.19,20.18,40.37,40.37,60.56,60.55,4.14,4.14,8.32,8.25,12.41,12.45,1,1.03,1.68,2.36,2.64,3.73ZM252.35,329.3c18.94-18.94,37.79-37.8,56.48-56.49-22.96-22.95-46.13-46.13-68.86-68.85-18.76,18.76-37.66,37.67-56.47,56.48,22.76,22.77,45.86,45.87,68.84,68.86Z"/>
  <path class="cls-1" d="M241.94,230.26c3,.49,7.06,4.31,7.07,6.59.01,2.47-1.35,3.93-3.82,4.09-2.21.15-6.61-3.78-6.18-5.94.34-1.71,1.91-3.17,2.94-4.74Z"/>
  <path class="cls-1" d="M227.76,244.45c2.99.51,7.03,4.36,7.03,6.62,0,2.49-1.38,3.92-3.84,4.08-2.23.15-6.59-3.79-6.15-5.97.34-1.71,1.93-3.16,2.96-4.73Z"/>
  <path class="cls-1" d="M274.45,262.97c3.11.46,7.21,4.17,7.26,6.48.05,2.47-1.82,4.79-3.68,4.03-2.51-1.04-4.65-3.54-6.23-5.9-.44-.66,1.7-3.03,2.65-4.61Z"/>
  <path class="cls-1" d="M268.11,284.72c-1.55,1.06-3.91,3.36-4.51,2.96-2.38-1.55-4.9-3.64-6.01-6.13-.87-1.96,1.35-3.77,3.83-3.81,2.24-.04,6.13,3.98,6.69,6.97Z"/>
  <path class="cls-1" d="M246.31,291.32c3.11.68,7.15,4.59,7.02,6.78-.15,2.42-2.03,4.67-3.94,3.78-2.47-1.15-4.51-3.72-6.02-6.12-.39-.62,1.89-2.91,2.94-4.43Z"/>
  <path class="cls-1" d="M221.19,266.4c-1.56,1-3.89,3.19-4.53,2.78-2.38-1.55-4.91-3.65-5.99-6.14-.82-1.89,1.46-3.76,3.91-3.8,2.25-.03,6.03,4.05,6.61,7.16Z"/>
  <path class="cls-1" d="M266.03,254.03c-1.52,1.11-3.82,3.49-4.41,3.12-2.43-1.51-5.02-3.52-6.21-6-.93-1.94,1.31-3.81,3.73-4.01,2.19-.18,6.18,3.82,6.89,6.89Z"/>
  <path class="cls-1" d="M244.29,260.73c3.07.71,7.06,4.68,6.9,6.88-.17,2.44-2.07,4.65-3.99,3.74-2.48-1.18-4.5-3.77-6.02-6.2-.37-.59,2-2.9,3.11-4.42Z"/>
  <path class="cls-1" d="M229.92,274.98c3.03.56,7.1,4.44,7.06,6.69-.05,2.48-1.95,4.73-3.83,3.9-2.51-1.11-4.6-3.66-6.16-6.06-.4-.61,1.89-2.97,2.94-4.53Z"/>
</svg>