<?xml version="1.0" encoding="UTF-8"?>
<svg id="Layer_2" data-name="Layer 2" xmlns="http://www.w3.org/2000/svg" viewBox="0 0 595.28 841.89">
  <defs>
    <style>
      .cls-1 {
        fill: #fff;
        stroke-width: 0px;
      }
    </style>
  </defs>
  <path class="cls-1" d="M529.08,338.5c-.82,3.9-1.43,7.86-2.49,11.69-9.4,33.97-31.43,55.04-65.55,63.32-11.79,2.86-23.76,2.43-35.48-.88-3.52-.99-5.84-.34-8.36,2.4-5.29,5.76-10.98,11.16-16.55,16.66-2.47,2.44-5.21,4.1-8.95,2.93-5.16-1.62-7.36-7.35-4.41-11.9.74-1.15,1.68-2.19,2.64-3.16,6.98-7.02,14.08-13.93,20.95-21.05,3.31-3.43,6.85-4.47,11.5-3.28,5.66,1.44,11.4,2.76,17.19,3.42,13.7,1.55,26.57-1.69,38.31-8.64,22.55-13.35,34.5-33.45,34.98-59.58.38-20.4-7.57-37.74-23.2-52.39,0,1.92,0,3.1,0,4.29,0,15.31-.09,30.63.06,45.94.04,4.22-1.44,7.19-4.91,9.56-11.79,8.03-23.47,16.21-35.22,24.3-4.68,3.23-7.29,3.22-11.97,0-11.65-8.03-23.23-16.16-34.94-24.09-3.6-2.44-5.19-5.45-5.16-9.79.12-15.2.02-30.39.01-45.59,0-1.22,0-2.44,0-4.43-6.21,5.25-10.65,10.92-14.11,17.24-10.68,19.48-12.27,39.62-3.82,60.36,3.11,7.62,2.8,9.06-3.08,14.9-1.63,1.62-3.23,3.31-5.07,4.66-3.28,2.4-7.65,1.92-10.32-.9-2.59-2.72-3.34-7.37-.56-10.01,3.6-3.42,2.55-6.5,1.3-10.33-12.01-36.63,5.14-79.67,39.11-98.5,6.34-3.51,12.64.11,12.66,7.41.06,19.8.08,39.61-.05,59.41-.02,2.65.84,4.12,2.98,5.55,8.31,5.57,16.52,11.29,24.7,17.06,1.63,1.15,2.77,1.35,4.52.1,8.44-5.99,16.96-11.87,25.54-17.67,1.79-1.21,2.2-2.6,2.19-4.61-.06-19.23-.05-38.45-.01-57.68,0-1.94.02-3.99.62-5.79,1.63-4.91,7.33-6.56,12.29-3.64,15.09,8.88,26.55,21.17,34.19,36.92,4.13,8.52,6.88,17.5,7.84,26.97.05.53.4,1.03.62,1.54v17.27Z"/>
  <path class="cls-1" d="M366.43,421.54c.94,1,1.7,1.84,2.5,2.64,25.97,25.98,51.93,51.97,77.96,77.88,1.49,1.48,3.43,2.95,5.4,3.43,15.41,3.73,27.47,12.27,37.92,24.08,9.3,10.5,19.74,19.98,29.66,29.93,5.35,5.37,5.34,9.36-.03,14.74-9.03,9.05-18.06,18.09-27.12,27.11-5.08,5.06-9.24,5.1-14.25.1-14.67-14.64-29.35-29.27-43.93-44.01-1.56-1.57-3.05-3.65-3.57-5.73-3.8-15.37-12.73-27.05-24.13-37.86-21.72-20.59-42.51-42.16-63.66-63.35-.89-.89-1.56-2-2.79-3.62-4.57,4.77-8.54,9.03-12.65,13.15-3.21,3.23-6.72,4.01-9.95,2.37-3.05-1.54-4.93-4.11-4.45-7.5.35-2.46-.59-3.81-2.13-5.34-40.41-40.36-80.76-80.79-121.2-121.11-9.13-9.1-13.82-19.72-13.37-32.76.62-17.94,16.05-35.01,33.88-37.36,14.31-1.88,26.19,2.57,36.28,12.68,40.44,40.49,80.93,80.93,121.38,121.42,1.5,1.51,2.77,2.6,5.28,2.18,3.38-.56,5.99,1.32,7.55,4.33,1.68,3.22,1.13,6.38-1.25,8.97-3.43,3.73-7.1,7.22-10.66,10.83-.87.88-1.71,1.8-2.67,2.81ZM358.66,405.72c-5.69-5.67-11.39-11.36-17.08-17.05-35.25-35.23-70.52-70.44-105.7-105.74-6.02-6.04-12.85-9.38-21.55-8.75-12.54.91-22.94,13.75-21.42,26.23.83,6.79,4.02,12.03,8.71,16.72,40.23,40.18,80.43,80.39,120.64,120.58.8.8,1.65,1.56,2.27,2.15,11.36-11.36,22.57-22.58,34.13-34.15ZM351.25,436.78c1.21.81,2.42,1.37,3.3,2.25,22,21.94,43.57,44.34,66.1,65.72,11.58,10.99,20.53,22.92,24.39,38.51.46,1.86,1.88,3.67,3.28,5.09,11.49,11.62,23.07,23.15,34.63,34.7.79.79,1.64,1.53,2.25,2.1,6.29-6.32,12.43-12.48,18.72-18.79-7.84-7.82-16.46-15.53-24.01-24.17-9.59-10.99-20.85-18.64-35.03-22.23-2.92-.74-5.8-2.84-7.99-5.02-26.46-26.27-52.8-52.66-79.13-79.07-.94-.95-1.37-2.41-2.12-3.78-1.99,2.13-2.84,3.03-4.4,4.7Z"/>
  <path class="cls-1" d="M175.27,564.62c.08-10.41,4.01-19.46,11.5-26.96,31.31-31.36,62.65-62.7,94.01-94.02,4.6-4.59,9.83-4.64,13.14-.32,2.15,2.81,2.32,6.37.28,9.29-.92,1.31-2.05,2.48-3.18,3.62-30.51,30.54-61.01,61.09-91.59,91.56-6.85,6.83-9.7,14.66-6.82,24.1,4.29,14.1,22.53,19.72,34.06,10.53,1.7-1.36,3.27-2.9,4.82-4.44,35.58-35.56,71.16-71.12,106.73-106.7,2.78-2.78,5.7-5.08,10.02-3.6,4.92,1.68,6.99,7.41,4.15,11.79-.74,1.15-1.67,2.2-2.64,3.17-36.05,36.07-72.08,72.16-108.18,108.17-16.95,16.91-41.73,16.48-57.05-.96-6.23-7.1-9.22-15.51-9.23-25.22Z"/>
  <path class="cls-1" d="M213.4,574.89c-5.62.05-9.87-4.09-9.94-9.68-.06-5.58,4.14-9.89,9.7-9.96,5.56-.06,9.87,4.16,9.93,9.72.05,5.6-4.12,9.87-9.69,9.91Z"/>
  <path class="cls-1" d="M325.7,416.54c-1.18-.79-3.71-1.95-5.58-3.78-14.41-14.23-28.7-28.59-43.02-42.91-21.32-21.32-42.68-42.6-63.91-64.02-1.84-1.85-3.36-4.4-4.06-6.9-.86-3.11.78-5.78,3.58-7.52,2.69-1.68,5.46-1.75,8.13-.07,1.25.78,2.39,1.8,3.44,2.85,35.66,35.62,71.3,71.27,106.96,106.9,2.61,2.61,4.7,5.34,3.7,9.38-.89,3.59-4.07,6.13-9.25,6.08Z"/>
</svg>