<?xml version="1.0" encoding="UTF-8"?>
<svg id="Layer_2" data-name="Layer 2" xmlns="http://www.w3.org/2000/svg" viewBox="0 0 595.28 841.89">
  <defs>
    <style>
      .cls-1 {
        fill: #fff;
        stroke-width: 0px;
      }
    </style>
  </defs>
  <path class="cls-1" d="M228.49,232.25c0-7.48.05-14.97-.01-22.45-.08-9.07,3.22-17.02,10.23-22.33,19.64-14.87,40.16-28.36,65.42-31.64,21.82-2.83,42.39,1.31,61.45,12.37,8.18,4.75,16.25,9.71,24.23,14.79,9.97,6.34,15.21,15.5,15.43,27.39.5,26.96-.58,53.88-3.76,80.64-4.18,35.21-8.45,70.44-13.8,105.48-3.95,25.91-9.49,51.59-14.71,77.3-3.68,18.1-18.44,29.68-36.94,29.74-12.22.04-24.45.01-36.67,0-20.95,0-35.26-11.49-39.19-32.13-6.16-32.36-12.62-64.69-17.77-97.22-4.27-27.03-7.22-54.28-10.02-81.51-2.07-20.07-2.97-40.26-4.4-60.39.17-.01.34-.03.5-.04ZM257.07,389.73c.99,5.66,1.89,10.91,2.82,16.15.96,5.39,2.24,10.73,2.81,16.16.35,3.38,1.74,3.99,4.75,3.88,5.85-.22,11.72-.13,17.58-.03,4.07.07,6.51,2.49,6.49,6.15-.02,3.53-2.32,5.82-6.28,5.89-6.33.1-12.66.03-19.32.03.33,1.66.55,2.84.79,4.03,2,9.99,3.51,20.11,6.14,29.94,3.49,13.04,11.66,19.13,24.59,19.27,13.22.15,26.44.16,39.66,0,12.34-.15,21.62-7.84,24.01-19.97,5.04-25.61,10.27-51.19,14.71-76.91,3.64-21.08,6.46-42.3,9.26-63.51,2.03-15.43,3.49-30.93,5.07-46.41.57-5.56.74-11.15,1.09-16.73l-.95-.17c-1.02,2.09-2.06,4.17-3.05,6.28-3.01,6.42-5.6,13.06-9.06,19.22-7.77,13.82-20.58,18.8-35.58,13.7-26.58-9.03-53.75-15.45-81.57-19.1-5.63-.74-11.29-1.19-17.4-1.83,1.56,14.73,3.06,28.91,4.6,43.42h4.41c20.33,0,40.65,0,60.98,0,1.25,0,2.5-.01,3.74.09,3.06.24,5.2,2.22,5.14,4.94-.05,2.1-1.59,4.47-3.12,6.13-.85.92-3.01.86-4.59.86-20.2.05-40.41.03-60.61.03h-4.42c1.66,11.16,3.43,21.71,4.7,32.32.4,3.35,1.64,3.93,4.65,3.9,13.09-.15,26.19-.09,39.28-.05,4.85.02,7.86,2.44,7.88,6.14.02,3.7-3.03,6.18-7.81,6.2-8.23.04-16.46.01-24.69.01-5.46,0-10.93,0-16.69,0ZM393.28,234.19c0-7.25.2-14.85-.05-22.43-.28-8.2-3.49-14.86-10.91-19.19-7.85-4.58-15.41-9.67-23.34-14.09-23.6-13.14-48.38-15.32-73.29-4.98-12.08,5.01-23.06,12.69-34.47,19.28-7.33,4.23-10.9,10.76-10.68,19.2.45,17.57,1.01,35.13,1.56,52.7.04,1.15.31,2.29.49,3.49,10.02-4.91,19.59-9.6,29.41-14.42-5.34-5.37-6.06-12.19-5.85-19.33.15-5.23.19-10.48,0-15.71-.48-13.33,9.11-22.45,22.02-22.16,20.69.46,41.4.07,62.09.13,7.69.02,13.17,4.13,17.1,10.35,2.32,3.67,1.21,7.43-2.22,9.32-3.03,1.68-6.14.59-8.35-3.18-1.58-2.7-3.74-4.4-6.87-4.41-21.32-.05-42.65-.07-63.97.02-4.33.02-7.27,3.05-7.33,7.37-.13,7.98-.11,15.96,0,23.94.05,3.82,2.17,6.53,5.93,7.03,2.61.35,5.51.17,8-.62,25.45-8.11,51.45-12.5,78.2-12.3,7.2.06,14.41,0,22.54,0ZM257.13,274.47c2.03.45,2.98.7,3.94.87,13.71,2.41,27.56,4.2,41.08,7.37,14.97,3.51,29.67,8.19,44.44,12.55,9.15,2.7,17.73-.68,21.75-8.81,6.38-12.92,12.85-25.8,19.27-38.71.09-.18-.04-.46-.09-.9-45.7-3.18-88.66,6.54-130.39,27.63Z"/>
  <path class="cls-1" d="M323.6,431.9c.03,3.13-2.43,5.75-5.48,5.85-3.22.11-5.8-2.55-5.75-5.9.05-3.19,2.56-5.76,5.6-5.74,2.98.02,5.6,2.71,5.62,5.79Z"/>
</svg>