<?xml version="1.0" encoding="UTF-8"?>
<svg id="Layer_2" data-name="Layer 2" xmlns="http://www.w3.org/2000/svg" viewBox="0 0 595.28 841.89">
  <defs>
    <style>
      .cls-1 {
        fill: #fff;
        stroke-width: 0px;
      }
    </style>
  </defs>
  <path class="cls-1" d="M288.38,119.27c6.95,1.25,14.03,1.99,20.82,3.84,53.68,14.63,88.39,48.84,101.61,102.82,10.43,42.56.62,81.68-26.15,116.45-.6.78-1.14,1.61-1.61,2.28,3.25,3.33,6.37,6.53,9.72,9.96,1.2-1.09,2.36-2.15,3.52-3.21,8.07-7.31,19.7-7.5,27.94-.37,2.26,1.96,4.32,4.14,6.44,6.26,27.17,27.16,54.31,54.36,81.54,81.46,4.45,4.43,8.6,8.95,10.47,15.11v8.98c-2.35,6.8-7.41,11.56-12.36,16.42-5.61,5.5-11.09,11.13-16.69,16.64-9.04,8.89-21.43,9.19-30.37.3-30.43-30.24-60.76-60.58-91-91.01-8.65-8.7-8.41-20.96.03-29.84.77-.81,1.53-1.62,2.08-2.2-3.34-3.27-6.59-6.45-9.78-9.57-6.74,4.36-13.9,9.59-21.6,13.84-25.85,14.25-53.54,19.57-82.89,15.88-59.06-7.44-105.93-50.92-118.15-109.56-13.85-66.47,25.75-135.6,90.28-156.85,10.07-3.32,20.79-4.68,31.21-6.95.84-.18,1.66-.44,2.5-.66,7.49,0,14.97,0,22.46,0ZM276.89,144.48c-62.26.13-112.41,50.41-112.24,112.51.17,62.33,50.55,112.42,112.97,112.3,61.67-.11,111.95-51.02,111.83-113.22-.12-61.45-50.83-111.73-112.55-111.6ZM423.61,420.35c18.22,18.22,36.51,36.51,54.45,54.46,5.61-5.62,11.39-11.39,16.84-16.85-18.05-18.05-36.35-36.34-54.42-54.42-5.51,5.49-11.21,11.17-16.87,16.8ZM421.68,384.97c-3.65-3.77-7.51-7.74-11.09-11.44-5.64,5.64-11.33,11.34-16.71,16.73,3.63,3.75,7.48,7.74,11.07,11.45,5.65-5.65,11.35-11.35,16.74-16.75Z"/>
  <path class="cls-1" d="M280.4,169.33c40.7,1.05,76.37,32.34,82.83,72.84.74,4.66,1.24,9.39,1.34,14.1.15,7.37-5.43,13.06-12.43,13.2-6.92.13-12.77-5.53-12.77-12.88-.02-30.17-22.21-56.59-52.72-61.42-3.19-.5-6.45-.57-9.67-.81-7.87-.61-12.84-5.89-12.53-13.33.29-6.99,5.89-11.76,13.71-11.69.75,0,1.5,0,2.24,0Z"/>
</svg>