<?xml version="1.0" encoding="UTF-8"?>
<svg id="Layer_2" data-name="Layer 2" xmlns="http://www.w3.org/2000/svg" viewBox="0 0 595.28 841.89">
  <defs>
    <style>
      .cls-1 {
        fill: #fff;
        stroke-width: 0px;
      }
    </style>
  </defs>
  <path class="cls-1" d="M271.42,220.58c11.06,5.97,16.3,16.37,20.56,27.4,6.08,15.77,8.62,32.34,10.77,49,1.45,11.21,3.15,22.4,4.77,33.59.07.47.41.9,1.38,2.97,1.08-1.84,1.58-3.27,2.54-4.23,25.91-25.98,51.8-51.98,77.9-77.77,2.25-2.23,5.71-3.83,8.85-4.4,3.11-.56,6.25,1.1,7.8,4.38,1.63,3.46,1.48,6.92-.6,10.13-.89,1.37-2.12,2.53-3.29,3.7-27.64,27.67-55.3,55.33-82.97,82.97-.98.98-2.19,1.74-4.31,3.39,4.41,2.52,7.61,5.14,11.27,6.3,10.75,3.43,21.69,6.29,32.56,9.37.73.21,1.45.46,2.18.69,13.03,4.25,14.98,6.92,15.18,20.77,0,.64-.01,1.27-.04,1.91-.35,10.4-2.46,12.56-12.43,14.86-13.69,3.15-27.26,6.77-42,10.47,1.91,2.04,2.79,3.03,3.72,3.96,25.76,25.77,51.51,51.55,77.31,77.28,2.63,2.63,4.68,5.44,4.49,9.27-.17,3.35-1.46,6.24-4.75,7.68-3.49,1.53-6.96,1.28-10.13-.88-1.35-.92-2.5-2.17-3.67-3.33-25.86-25.85-51.72-51.7-77.56-77.57-.99-.99-1.86-2.1-2.68-3.03-2.99,1.22-5.62,2.3-8.62,3.53-5.81,40.12-11.68,80.6-17.62,121.57,14.35,2.77,28.62,5.52,43.01,8.3,1.36-3.05,2.59-5.79,3.81-8.54.27,0,.54,0,.81,0,.62,5.16,1.61,10.31,1.77,15.48.23,7.61-.09,15.24-.26,22.85-.1,4.72-2.28,8.45-5.64,11.69-2.44,2.36-4.61,5.01-6.84,7.46-4.66-6.26-6.42-12.39.1-18.76-.34-.15-.68-.29-1.03-.44-6.21,1.12-12.42,2.21-18.62,3.38-6.24,1.18-12.49,2.32-18.68,3.75-1.27.29-2.39,1.66-3.37,2.72-.57.61-.5,1.88-1.11,2.37-2.06,1.66-4.16,4.05-6.5,4.4-2.95.44-5.13-2.2-5.68-5.18-.61-3.26-2.44-4.39-5.5-4.94-10.62-1.91-21.2-4.06-31.81-6.09-.97-.19-1.99-.13-4.16-.26,6.45,6.57,5.25,12.71.33,18.68-7.54-6.66-14.08-14-13.25-25.51.76-10.5,1.05-21.03,1.55-31.55.48-.06.96-.13,1.45-.19.91,2.09,1.61,4.31,2.82,6.21.61.96,2.25,2.06,3.21,1.89,13.49-2.41,26.94-5.04,40.81-7.69-5.91-40.77-11.79-81.34-17.64-121.69-3.97-2.42-6.44-.79-9.26,2.05-25.11,25.34-50.33,50.57-75.7,75.64-2.27,2.24-5.69,3.88-8.83,4.51-3.13.62-6.27-1.05-7.87-4.27-1.7-3.42-1.62-6.9.47-10.13.96-1.47,2.27-2.74,3.53-4,25.03-25.06,50.08-50.1,75.12-75.14.97-.97,1.88-1.99,3.62-3.85-9.93-2.92-19.07-5.81-28.31-8.28-7.6-2.03-15.36-3.46-22.97-5.43-1.51-.39-3.29-1.8-3.93-3.21-4.12-9.05-2.38-18.16.5-27.12.35-1.1,2.11-2.08,3.41-2.47,11.89-3.64,23.8-7.18,35.74-10.67,7.61-2.23,15.24-4.37,20.02-12.56-1.06-.83-2.39-1.65-3.46-2.73-26.78-26.73-53.58-53.45-80.19-80.34-2.25-2.27-3.94-5.67-4.56-8.81-.61-3.08.94-6.3,4.18-7.92,3.57-1.78,7.14-1.61,10.47.59,1.36.9,2.51,2.15,3.68,3.32,24.24,24.22,48.48,48.45,72.67,72.73.96.96,1.43,2.4,2.12,3.62.53-.33,1.06-.67,1.59-1,.87-6.1,1.84-12.19,2.6-18.31,2.56-20.81,4.69-41.71,12.22-61.51,3.55-9.32,7.65-18.37,16.08-24.52,1.22-.89,2.53-1.67,3.79-2.49,1.02,0,2.04,0,3.06,0Z"/>
</svg>