<?xml version="1.0" encoding="UTF-8"?>
<svg id="Layer_2" data-name="Layer 2" xmlns="http://www.w3.org/2000/svg" viewBox="0 0 595.28 841.89">
  <defs>
    <style>
      .cls-1 {
        fill: #fff;
        stroke-width: 0px;
      }
    </style>
  </defs>
  <path class="cls-1" d="M447.47,208.39c-4.86,12.82-15.98,10.74-26.04,10.64-1.46,5.64-2.5,11.08-4.29,16.26-10.48,30.26-39.39,50.2-71.4,48.36-35.64-2.05-61.77-26-68.35-61.14-.32-1.71-1.26-3.55-2.46-4.8-10.44-10.9-27.22-12.07-39.15-2.89-3.28,2.52-5.43,5.46-6.2,9.81-5.61,31.72-31.96,55.82-63.86,58.71-38.68,3.5-72.01-22.33-78.42-60.75-.18-1.1-.53-2.17-.88-3.57-4.21,0-8.36.12-12.5-.02-7.85-.27-13.71-6.37-13.74-14.13-.04-7.9,5.96-14.29,13.82-14.56,4-.13,8.01-.02,12.17-.02.3-2.07.4-3.82.83-5.49,2.09-8.15,9.28-13.99,18.03-14.02,35.8-.11,71.61-.14,107.41.02,10.12.05,16.39,6.48,18.88,18.61,14.93-6.46,29.91-6.47,44.97,0,.44-1.96.73-3.81,1.28-5.58,2.39-7.68,9.53-13.03,18.01-13.05,35.55-.08,71.1-.1,106.65,0,10.77.03,17.44,6.84,19.21,19.51,9.99-.12,21.04-1.87,26.02,10.55v7.56Z"/>
</svg>