<?xml version="1.0" encoding="UTF-8"?>
<svg id="Layer_2" data-name="Layer 2" xmlns="http://www.w3.org/2000/svg" viewBox="0 0 595.28 841.89">
  <defs>
    <style>
      .cls-1 {
        fill: #fff;
        stroke-width: 0px;
      }
    </style>
  </defs>
  <path class="cls-1" d="M98.35,416.19c2.19-3.11,5.08-4.52,8.98-4.95,13.11-1.44,20.85-10.38,20.88-23.75.05-27.44-.07-54.88.08-82.32.07-13.16,8.79-24.04,21.59-27.03,10.53-2.46,19.67.49,27.31,8.15,13.83,13.86,27.7,27.69,41.53,41.55,1.23,1.23,2.34,2.58,3.91,4.33,2.82-2.9,5.26-5.49,7.79-8,17.82-17.71,42.77-17.72,60.61.06,22,21.92,43.94,43.9,65.86,65.91,1.56,1.57,2.93,3.41,4.05,5.32,12.61,21.48,25.16,43,37.72,64.5,6.88,11.78,6.78,14.47-1.36,25.79,3.16,2.97,6.52,5.93,9.65,9.1,7,7.07,7,15.72.07,22.85-3.13,3.22-6.29,6.42-9.54,9.51-6.92,6.59-15.42,6.49-22.26-.25-3.28-3.23-6.44-6.59-9.62-9.85-9.64,7.97-13.83,8.27-24.48,1.97-1.18-.7-2.38-1.36-3.56-2.06-20.53-12-41.08-23.99-61.58-36.04-2.02-1.19-3.98-2.61-5.63-4.25-22.01-21.92-43.99-43.86-65.91-65.86-15.02-15.08-17.77-36.08-6.48-52.78,3.8-5.62,8.92-10.34,13.64-15.7-.54-.61-1.2-1.45-1.95-2.2-14.11-14.12-28.27-28.17-42.3-42.37-4.55-4.6-9.66-6.79-15.82-4.28-6.35,2.58-8.35,7.89-8.33,14.49.11,26.57.06,53.14.04,79.71-.01,20.54-12.91,35.54-33.19,38.72-4.98.78-9.17-.15-11.71-5.01v-5.24ZM224.41,408.2c18.13,18.13,35.73,35.73,52.81,52.82,8.64-8.66,17.56-17.61,26.7-26.77-5.48-5.42-11.37-11.16-17.14-17.01-3.49-3.54-3.63-7.78-.61-10.98,3.03-3.2,7.67-3.11,11.29.32,2.35,2.23,4.64,4.53,6.88,6.87,3.5,3.65,6.94,7.37,10.06,10.69,9.57-9.56,18.51-18.5,26.93-26.92-17.34-17.36-34.94-34.96-52.66-52.7.3-.11.15-.1.08-.02-2.49,2.44-4.97,4.9-7.47,7.33-3.82,3.7-8.39,4.02-11.58.84-3.21-3.2-2.99-7.82.83-11.54,2.64-2.57,5.57-4.82,8.4-7.24-10.79-10.09-26.03-10.17-35.87-.73-10.07,9.67-19.94,19.56-29.62,29.61-9.59,9.95-9.5,24.91.48,35.92,1.35-1.7,2.53-3.49,4.01-4.99,7.11-7.21,10.98-8.24,14.97-4.13,3.91,4.02,2.89,7.75-4.12,14.72-1.5,1.49-3.16,2.82-4.38,3.91ZM352.54,508.15c.86-.81,1.7-1.55,2.49-2.33,10.32-10.31,20.57-20.7,31.01-30.89,2.05-2,1.95-3.36.6-5.64-11.14-18.87-22.15-37.81-33.21-56.72-.54-.92-1.16-1.78-1.63-2.5-20.57,20.59-40.99,41.03-61.59,61.65,20.6,12.04,41.42,24.22,62.35,36.45ZM396.15,506.54c-3.27-3.39-6.53-6.77-9.5-9.85-3.32,3.27-6.73,6.62-9.74,9.58,3.12,3.29,6.36,6.7,9.46,9.97,3.38-3.34,6.72-6.66,9.79-9.69Z"/>
  <path class="cls-1" d="M482.5,519.83c-2.77,8.34-4.79,17.02-8.43,24.96-14.3,31.21-38.72,49.81-72.38,56.27-5.5,1.06-9.24-1.29-9.96-5.73-.8-4.89,1.89-8.17,7.48-9.18,17.96-3.25,33.38-11.31,45.91-24.6,10.85-11.5,17.78-25.09,20.85-40.62.22-1.1.44-2.2.69-3.29.97-4.2,4.46-6.82,8.39-6.3,3.99.53,6.67,3.88,6.54,8.2.3.1.61.2.91.3Z"/>
  <path class="cls-1" d="M394.68,572.53c-4.18-.75-7.34-3.64-7.75-7.58-.38-3.66,2.03-6.9,5.86-8.02,4.64-1.35,9.49-2.27,13.86-4.25,16.61-7.53,26.48-20.57,30.06-38.38.75-3.75,2.4-6.62,6.32-7.42,5.35-1.1,9.76,3.32,8.74,9.01-4.29,23.78-17.36,40.95-39.46,50.86-5.61,2.52-11.74,3.88-17.63,5.78Z"/>
  <path class="cls-1" d="M251.29,363.62c4.3,0,7.52,3.29,7.44,7.61-.07,4.09-3.29,7.37-7.32,7.46-4.02.09-7.71-3.5-7.75-7.54-.04-4.14,3.39-7.53,7.63-7.52Z"/>
</svg>