<?xml version="1.0" encoding="UTF-8"?>
<svg id="Layer_3" data-name="Layer 3" xmlns="http://www.w3.org/2000/svg" viewBox="0 0 595.28 841.89">
  <defs>
    <style>
      .cls-1 {
        fill: #fff;
        stroke-width: 0px;
      }
    </style>
  </defs>
  <path class="cls-1" d="M352.63,498c.09-6.55.11-13.02-1.53-19.37-1.19-4.62-2.36-9.26-3.13-13.96-1.3-8.03,2.01-14.33,7.96-19.5.8-.69,1.36-.76,2.2-.04,5.44,4.69,8.9,10.4,8.14,17.76-.48,4.66-1.79,9.24-2.73,13.86-.75,3.64-1.51,7.27-2.31,11.09,6.24.34,12.03.66,17.83.98,16.03.88,32.07,1.75,48.1,2.63,2.15.12,2.67.71,2.69,2.91.01,1.32,0,2.65,0,3.97,0,2.52-.5,3.06-2.95,3.19-16.61.84-33.22,1.68-49.83,2.52-4.77.24-9.54.48-14.31.73-.51.03-1.01.09-1.67.16-.04,3.92-.09,7.77-.13,11.61-.02,2.13.01,4.26-.09,6.39-.05,1.07.27,1.63,1.29,2.09,4.62,2.06,9.19,4.22,13.79,6.34,2.34,1.08,3.49,4.38,2.29,6.71-.59,1.15-1.56.94-2.55.66-5.19-1.5-10.36-3.15-15.61-4.42-1.93-.47-4.16-.46-6.09.01-5.19,1.27-10.29,2.92-15.43,4.4-2.04.59-2.82.03-2.88-2.05-.02-.58,0-1.15-.02-1.73-.06-1.61.61-2.71,2.12-3.39,4.66-2.11,9.28-4.32,13.96-6.4,1.18-.53,1.59-1.19,1.56-2.47-.13-5.86-.16-11.72-.23-17.78-2.9-.16-5.7-.33-8.5-.47-19.2-.97-38.39-1.94-57.59-2.91-2.19-.11-2.7-.64-2.73-2.85-.02-1.38-.02-2.76,0-4.14.02-2.44.47-2.94,2.88-3.07,9.37-.52,18.73-1.02,28.1-1.53,10.29-.56,20.58-1.09,30.86-1.73,1.55-.1,2.24.39,2.81,1.76,1.15,2.73,2.5,5.39,3.76,8.07Z"/>
  <path class="cls-1" d="M376.21,475.26c2.59,2.5,3.46,5.39,3.27,8.83-2.22-.12-4.37-.23-6.61-.35-.18-3.38.77-6.11,3.34-8.48Z"/>
  <path class="cls-1" d="M337.8,475.23c2.58,2.39,3.57,5.09,3.37,8.51-2.22.12-4.37.23-6.57.35-.32-3.48.74-6.28,3.19-8.87Z"/>
  <path class="cls-1" d="M371.65,509.06c3.05-.16,5.96-.31,8.91-.47.07.36.13.57.14.78.14,3.36.02,3.39-3.19,2.68-1.05-.24-2.29-.09-3.35.21-2.31.65-2.6.5-2.57-1.94,0-.34.03-.68.05-1.26Z"/>
  <path class="cls-1" d="M342.37,509.03c.03.72.08,1.29.07,1.85-.04,1.77-.52,1.91-2.3,1.48-1.33-.32-2.86-.44-4.17-.12-2.3.55-2.67.44-2.67-1.88,0-.51.04-1.03.08-1.76,2.97.14,5.87.28,8.98.43Z"/>
</svg>