<?xml version="1.0" encoding="UTF-8"?>
<svg id="Layer_3" data-name="Layer 3" xmlns="http://www.w3.org/2000/svg" viewBox="0 0 595.28 841.89">
  <defs>
    <style>
      .cls-1 {
        fill: #fff;
        stroke-width: 0px;
      }
    </style>
  </defs>
  <path class="cls-1" d="M242.38,579.54h-25.93c-1.1-.29-2.19-.62-3.3-.86-13.71-2.97-28.07-4.23-41.03-9.18-67.93-25.97-106.87-75.28-115.26-147.83-3.7-31.95,2.36-62.5,16.38-91.3,35.35-72.62,116.43-113.28,197.19-92.64,66.88,17.09,109.17,60.52,127.4,127.08,2.52,9.2,3.43,18.83,5.08,28.27v25.93c-1.32,7.98-2.09,16.1-4.04,23.91-17.24,68.93-60.13,112.99-128.76,131.63-9.03,2.45-18.48,3.37-27.74,4.99ZM229.19,553.19c81.85-.18,147.8-66.37,147.38-147.92-.42-81.15-66.78-146.82-147.93-146.39-80.74.43-146.78,66.73-146.38,146.94.41,81.67,66.09,147.54,146.93,147.36Z"/>
  <path class="cls-1" d="M189.64,299.71c-21.97,8.4-39.4,21.9-53.25,41.09,3.39,2.01,6.58,3.91,10.25,6.08-3.12,5.65-6.2,11.23-9.47,17.15-3.6-1.93-6.92-3.71-10.79-5.79-14.17,32.08-14.02,63.75.11,95.92,3.55-2,6.68-3.76,10.3-5.8,3.36,5.65,6.62,11.12,10.08,16.92-7.02,4.48-13.83,8.83-20.65,13.17-28.99-36.14-36.59-105.16,7.18-155.09,47.21-53.86,126.71-59.17,179.3-12.96,53.15,46.7,54.67,121.92,19.98,168.54-7.08-4.21-13.88-8.26-20.92-12.44,3.28-5.87,6.32-11.33,9.58-17.18,3.65,1.94,6.96,3.69,10.59,5.61,14.72-32.15,14.69-64.15.58-96.99-3.59,2.08-6.95,4.02-10.77,6.23-3.26-5.53-6.5-11-10-16.93,3.54-2.17,6.87-4.21,10.69-6.55-20.7-27.81-47.73-43.88-82.88-47.79v12.13h-19.44c-.21-3.73-.42-7.6-.7-12.65-9.04,1.91-17.62,3.72-27.09,5.72M279.04,303.57c-1.91,9.28-4.25,18.89-5.97,27.3-3.48,17.06-7.06,34.1-10.29,51.21-.5,2.66-.06,5.93,1.08,8.4,8.64,18.61,2.35,40.33-15.02,50.96-16.71,10.23-39.81,5.93-51.53-9.58-12.28-16.25-10.68-39.25,4.57-52.75,4.89-4.33,11.76-6.39,17.64-9.63,2.49-1.37,5.33-2.66,7.08-4.77,11.98-14.4,23.72-29.01,35.53-43.56,4.57-5.63,9.74-12.49,14.83-18.78l2.08,1.21ZM210.35,407.81c.05,10.94,8.58,19.55,19.44,19.64,11.06.09,19.74-8.64,19.73-19.84-.01-11.18-8.65-19.64-19.93-19.52-10.92.11-19.29,8.7-19.24,19.72Z"/>
</svg>