<?xml version="1.0" encoding="UTF-8"?>
<svg id="Layer_2" data-name="Layer 2" xmlns="http://www.w3.org/2000/svg" viewBox="0 0 595.28 841.89">
  <defs>
    <style>
      .cls-1 {
        fill: #fff;
        stroke-width: 0px;
      }
    </style>
  </defs>
  <path class="cls-1" d="M458.4,189.73c4.21,1.52,8.6,2.67,12.58,4.64,9.8,4.86,14.27,13.22,15.34,23.95.67,6.71,2.17,13.35,3.42,20,.4,2.13,1.37,4.74-1.45,5.33-2.75.58-6.22,1.66-8.29-1.77-1.43-2.37-2.66-4.86-4.04-7.4-16.16,9.93-32.12,10.01-48.36-.14-1.06,1.98-2.26,3.86-3.1,5.89-1.18,2.86-3.07,3.95-6.18,3.8-4.82-.23-5.35-.54-4.58-5.42,1.29-8.12,2.73-16.22,4.16-24.32,2.23-12.63,10.63-19.33,22.19-22.97,1.59-.5,3.16-1.07,4.74-1.61,4.52,0,9.05,0,13.57,0Z"/>
  <path class="cls-1" d="M261.98,189.73c4.85,1.99,9.94,3.54,14.5,6.06,6.97,3.86,11.11,9.99,12.35,18.05,1.27,8.26,2.87,16.46,4.23,24.7.33,1.99,1.34,4.8-1.72,5.22-2.77.38-6.23,1.58-8.18-2.09-1.24-2.34-2.54-4.65-3.91-7.16-16,9.9-31.96,10.02-48.31-.08-1.2,2.18-2.21,4.63-3.77,6.66-.99,1.29-2.72,2.63-4.24,2.79-6.03.63-6.73-.27-5.71-6.25,1.31-7.71,2.75-15.41,4-23.13,2.07-12.75,10.5-19.37,21.98-23.12,1.73-.56,3.47-1.09,5.2-1.64,4.52,0,9.05,0,13.57,0Z"/>
  <path class="cls-1" d="M229.08,290.71c4.51,0,8.34,0,12.18,0,17.29,0,34.59-.03,51.88,0,15.83.03,28.25,6.31,35.1,20.93,2.4,5.11,3.71,11.2,3.78,16.86.37,31.52.22,63.05.2,94.58,0,9.49-6.73,16.46-15.74,16.53-9.2.07-16.11-6.93-16.13-16.58-.06-30.2-.04-60.39-.05-90.59,0-.93.23-1.94-.06-2.78-.5-1.45-1.33-2.78-2.01-4.16-.64,1.41-1.83,2.81-1.84,4.23-.11,25.27-.08,50.55-.08,75.82,0,57.6.01,115.2-.01,172.8,0,11.17-7.67,19.72-17.88,20.13-11.37.46-20.25-7.82-20.35-19.3-.13-16.89-.04-33.79-.04-50.68,0-17.69,0-35.38,0-53.08,0-7.48-.02-7.52,6.86-10.39,6.39-2.66,11.44-6.85,12.38-13.89.55-4.12-.08-8.76-1.47-12.71-3.05-8.61-7.01-16.9-10.38-25.41-.6-1.52-.61-3.66-.04-5.19,4.3-11.69,2.27-22.12-5.59-31.65-.81-.99-1.31-2.85-.99-4.05,1.18-4.5.46-8.63-1.28-12.81-8.99-21.54-17.91-43.11-26.85-64.67-.45-1.08-.87-2.18-1.58-3.96Z"/>
  <path class="cls-1" d="M425.84,290.71c4.97,0,9.21-.03,13.46,0,18.75.13,37.51-.1,56.24.53,17.4.59,32.48,15.97,32.99,33.45.5,17.41.27,34.85.33,52.27.06,15.03.18,30.06.1,45.1-.06,10.87-6.89,17.88-16.77,17.55-8.96-.3-15.23-7.58-15.28-17.97-.08-20.62-.07-41.24-.1-61.86-.01-9.98.05-19.95-.1-29.93-.02-1.45-1.06-2.88-1.62-4.32-.67,1.5-1.52,2.95-1.96,4.51-.31,1.11-.06,2.38-.06,3.58,0,80.61.01,161.23-.05,241.84,0,3.41-.23,6.97-1.2,10.21-2.54,8.49-11.02,13.65-20.19,12.78-8.23-.78-15.27-7.55-16.48-15.97-.32-2.23-.52-4.49-.52-6.74-.03-34.45.04-68.91-.12-103.36-.02-3.55,1.08-5.28,4.34-6.34,6.24-2.02,11.68-5.22,14.31-11.7,2.16-5.33,1.76-10.62-.44-15.86-3.55-8.44-7.15-16.85-10.52-25.36-.6-1.52-.69-3.63-.16-5.16,4.04-11.47,2.51-21.87-5.24-31.37-.93-1.15-1.71-3.18-1.35-4.48,1.27-4.65.42-8.91-1.36-13.17-8.83-21.17-17.65-42.35-26.46-63.54-.55-1.32-1.02-2.67-1.8-4.7Z"/>
  <path class="cls-1" d="M215.98,418.19c.41,2.45.9,4.88,1.22,7.34,1.4,10.52,2.54,21.09,4.18,31.58,2,12.84,13.5,19.47,25.82,15.21,1.6-.55,3.16-1.23,5.04-1.98.09,1.44.22,2.46.22,3.48,0,34.72-.12,69.43.08,104.15.07,11.04-6.66,17.4-12.85,19.55-12.02,4.17-24.2-4.03-25.44-17.1-.11-1.19-.09-2.39-.09-3.59.03-51.48.06-102.95.09-154.43,0-1.3,0-2.59,0-3.89.57-.11,1.15-.22,1.72-.33Z"/>
  <path class="cls-1" d="M412.42,418.33c.4,1.56.95,3.1,1.17,4.68,1.52,11.18,2.65,22.42,4.54,33.54,2.45,14.41,13.55,20.42,27.13,15.2,1.09-.42,2.21-.76,3.85-1.32.11,1.56.27,2.8.27,4.04.01,34.19.04,68.38,0,102.57-.02,13.39-8.47,22.06-20.71,21.44-8.91-.45-16.59-7.83-17.4-16.77-.14-1.59-.27-3.18-.26-4.78.05-51.75.11-103.51.18-155.26,0-1.05,0-2.11,0-3.16.41-.07.82-.13,1.23-.2Z"/>
  <path class="cls-1" d="M186.36,310.54c5.16,12.35,10.08,23.91,14.74,35.57.57,1.43-.26,3.41-.53,5.94.51.37,1.71,1.3,2.97,2.15,13.83,9.43,27.7,18.8,41.5,28.27,7.07,4.85,9.64,11.42,7.49,18.46-3.07,10.05-13.85,14.6-22.96,9.41-4.72-2.69-9.1-5.97-13.61-9.03-14.83-10.08-29.66-20.17-44.47-30.28-9.43-6.44-11.28-14.41-5.65-24.37,6.65-11.78,13.36-23.52,20.53-36.12Z"/>
  <path class="cls-1" d="M383.04,310.59c1.84,4.33,3.43,8.06,4.99,11.8,2.96,7.09,6.04,14.14,8.78,21.32.88,2.3.81,4.97,1.17,7.47-.42.16-.85.31-1.27.47,1.16.84,2.3,1.7,3.48,2.51,14.04,9.58,28.12,19.09,42.1,28.76,7.94,5.49,9.92,15.29,4.83,22.67-5.01,7.26-14.32,9.08-22.2,4.06-6.27-3.99-12.32-8.32-18.46-12.51-12.73-8.67-25.46-17.34-38.17-26.03-9.65-6.6-11.44-14.38-5.64-24.63,6.66-11.76,13.35-23.5,20.39-35.88Z"/>
  <path class="cls-1" d="M190.7,222.88c9.88-2.99,12.65-2.62,14.64,1.76,1.93,4.26.32,6.44-9,11.94,18.08,43.53,36.19,87.12,54.29,130.7-.37.21-.74.42-1.12.63-1-.59-2.03-1.13-2.99-1.79-11.32-7.7-22.66-15.36-33.9-23.17-1.53-1.07-2.99-2.7-3.71-4.4-6.54-15.38-12.89-30.83-19.32-46.25-1.36-3.25-1.94-6.47.74-9.29,2.49-2.62,5.54-2.84,9.39-1.01-.77-2.09-1.27-3.62-1.89-5.1-7.54-18.12-15.1-36.23-22.65-54.35-.46-1.1-.92-2.21-1.29-3.34-1.3-3.95.06-7.59,3.4-9.13,3.53-1.63,7.43-.23,9.41,3.51.81,1.52,1.34,3.17,2.02,4.76.62,1.45,1.26,2.89,1.98,4.53Z"/>
  <path class="cls-1" d="M392.98,236.41c18.14,43.67,36.21,87.18,54.29,130.7-.38.23-.76.45-1.13.68-.86-.5-1.76-.94-2.58-1.5-11.55-7.83-23.11-15.65-34.59-23.58-1.33-.92-2.57-2.35-3.19-3.82-6.61-15.64-13.13-31.31-19.59-47.01-2.07-5.04-.75-9.22,3.5-10.56,1.86-.59,4.07-.1,6.57-.1-2.84-6.89-5.63-13.69-8.45-20.48-5.4-12.98-10.86-25.93-16.21-38.94-.79-1.93-1.6-4.08-1.49-6.09.16-2.94,1.92-5.24,5-5.98,3.32-.79,6.18.1,7.83,3.19,1.67,3.15,2.98,6.49,4.6,10.06,5.16-1.71,10.95-5.59,14.61,1.91,2.11,4.33-.1,6.9-9.15,11.51Z"/>
  <path class="cls-1" d="M286.25,254.78c-.92,14.36-14.83,27.5-31.29,27.01-16.28-.49-29.13-12.52-30.14-27.21,3.32-2.35,6.21-4.48,9.21-6.45.6-.39,1.71-.46,2.41-.2,12.48,4.55,24.93,4.52,37.41.02.67-.24,1.73,0,2.38.39,3.16,1.93,6.25,4,10.02,6.44Z"/>
  <path class="cls-1" d="M470.79,247.86c4.71,2.52,8.21,4.4,12.03,6.45.37,13.49-13.69,26.77-29.91,27.48-16.06.71-30.35-12.07-31.31-27.23,3.29-2.33,6.17-4.47,9.16-6.44.6-.4,1.72-.44,2.42-.18,13.02,4.8,25.96,4.43,37.6-.08Z"/>
  <path class="cls-1" d="M423.28,424.96c11.65,3.74,21.62,1.64,31-5.8,1.15,2.58,2.24,4.91,3.24,7.28,2.21,5.25,4.45,10.5,6.54,15.8,2.54,6.44.65,11.2-5.62,13.93-5.95,2.59-11.97,5.06-18.04,7.38-5.95,2.27-11.79-.64-12.8-6.78-1.7-10.31-2.85-20.7-4.33-31.8Z"/>
  <path class="cls-1" d="M226.53,424.93c11.79,3.83,21.71,1.55,31.15-5.77,2.55,6.04,5.01,11.8,7.43,17.58,5.79,13.82,4.9,15.98-8.91,21.73-4.16,1.73-8.28,3.55-12.5,5.1-6.41,2.36-11.83-.77-12.87-7.58-1.53-10.06-2.8-20.16-4.3-31.07Z"/>
</svg>