<?xml version="1.0" encoding="UTF-8"?>
<svg id="Layer_2" data-name="Layer 2" xmlns="http://www.w3.org/2000/svg" viewBox="0 0 595.28 841.89">
  <defs>
    <style>
      .cls-1 {
        fill: #fff;
        stroke-width: 0px;
      }
    </style>
  </defs>
  <path class="cls-1" d="M309.59,321.3c4.21,13.74-1.71,23.76-15.66,27.68-1.53.43-2.36,3.38-3.75,5.54,10.1,4.62,19.35,8.82,28.58,13.08,7.14,3.29,11.51,8.64,11.79,16.73.47,13.68-12.68,23.03-25.35,17.82-8.85-3.64-17.46-7.88-26.18-11.85-1.13-.51-2.26-1.01-4.21-1.88.61,1.69.96,2.75,1.37,3.8,2.87,7.29,5.93,14.51,8.57,21.88,4.17,11.62-2.51,22.76-14.67,24.85-7.51,1.29-15.63-3.28-18.95-10.99-2.86-6.62-5.4-13.37-8.09-20.06-.46-1.14-.94-2.26-1.36-3.28-2.69.24-5.2.23-7.58.79-1.02.24-2.06,1.52-2.58,2.58-10.26,20.89-20.4,41.83-30.67,62.72-8.68,17.64-22.55,28.7-42.15,31.53-21.29,3.07-38.58-4.5-52.08-21.1-1.39-1.71-2.88-3.46-4.65-4.75-30.92-22.49-30.86-68.83.39-90.9,19.44-13.73,39.22-26.99,58.84-40.46,1.13-.77,2.24-1.56,3.6-2.51-4.85-6.25-6.61-13.05-3.62-20.55,3.04-7.63,9.11-11.2,17.08-12.14,1.4-11.13,7.54-17.58,18.66-18.91,2.16-11.78,7.07-16.84,18.17-18.83,4.52-15.24,11.96-20.81,25.39-18.71,1.81-6.39,3.49-12.85,5.48-19.23,6.79-21.81,14.87-43.06,27.75-62.14,6.69-9.91,14.63-18.52,25.4-24.32,21.84-11.74,54.15,3.25,57.33,28.39.24,1.93,1,2.7,2.67,3.35,21.1,8.2,34.02,23.45,36.76,45.9,2.66,21.75-5.32,39.8-23.32,52.59-19.6,13.94-39.61,27.29-59.44,40.91-1.13.77-2.23,1.57-3.54,2.49ZM186.74,365.34c-12.03,9.18-24.31,18.55-36.58,27.93-9.41,7.19-18.84,14.35-28.21,21.58-4.52,3.49-8.52,7.49-9.28,13.49-1.3,10.35,10.29,23.82,20.81,24.56,7.38.52,12.25-3.46,16.31-8.81,10.02-13.2,19.95-26.48,29.91-39.73,6.65-8.85,13.31-17.71,19.92-26.51-4.37-4.25-8.55-8.31-12.87-12.51ZM256.04,265.3c.44-1.29.82-2.44,1.22-3.59,6.81-19.89,14.04-39.61,23.67-58.36,5.19-10.1,10.66-20.04,18.95-28.04,3.26-3.15,6.86-5.85,11.61-6.23,9.47-.75,17.65,7.32,18.25,17.71.48,8.32-1.77,16.01-5.07,23.47-8.19,18.55-20.4,34.46-33.28,49.87-6.2,7.42-12.79,14.52-19.17,21.74,1.8,1.92,3.49,3.72,5.17,5.51.54-.4.87-.58,1.12-.83,17.78-17.92,34.18-36.99,47.98-58.17,7.42-11.39,14.05-23.23,17.1-36.67,2.38-10.51,2-20.66-7.09-28.04-12.09-9.81-25.18-11.06-37.94-1.32-8.81,6.73-15.03,15.59-20.32,25.11-12.04,21.69-19.63,45.05-25.85,68.95-1.13,4.35.04,6.75,3.66,8.89ZM173.85,351.39c-.71.36-1.17.52-1.57.8-21.17,14.5-42.5,28.78-63.44,43.61-15.26,10.8-21.48,30.12-15.89,47.79,5.51,17.42,17.56,28.08,35.55,30.57,17.55,2.43,31.79-4.38,41.84-19.06,13.79-20.15,27.28-40.5,41.04-60.67,1.7-2.49,1.73-4.09-.68-5.81-.78-.55-1.44-1.26-2.29-2.03-.79.97-1.43,1.71-2.01,2.49-15.74,20.91-31.39,41.89-47.23,62.72-11.94,15.69-29.44,17.88-44.35,5.49-9.31-7.73-15.53-17.22-14.19-30.07,1.01-9.62,6.65-16.43,13.98-22.06,15.92-12.22,31.88-24.38,47.82-36.56,5.31-4.06,10.6-8.13,16.13-12.37-1.79-1.84-3.24-3.33-4.71-4.83ZM353.6,201.16c.73.48,1.24.82,1.75,1.14.63.4,1.29.75,1.9,1.19,11.22,8.1,18.91,18.18,17.33,32.9-1.02,9.57-6.93,16.28-14.27,21.89-15.05,11.5-30.1,22.99-45.15,34.49-6.11,4.67-12.2,9.38-18.25,14.02,1.66,1.84,3.07,3.41,4.52,5.02.74-.41,1.3-.65,1.8-.99,20.96-14.36,42.04-28.55,62.82-43.16,15.08-10.61,21.53-29.11,16.68-46.93-3.84-14.12-12.93-23.75-26.53-29.56-.9,3.45-1.71,6.55-2.61,9.99ZM348.98,213.13c-15.48,31.7-38.41,57.85-62.51,83.59,1.26.38,2.66.61,3.43.02,21.62-16.45,43.34-32.79,64.69-49.58,12.64-9.94,9.62-27.51-5.62-34.02ZM300.01,329.91c-1.35-2.4-1.95-4.25-3.16-5.48-18.88-19.18-37.82-38.31-56.81-57.39-3.24-3.26-6.47-3.04-9.77.26-3.27,3.27-3.59,6.68-.48,9.83,18.99,19.25,38.05,38.43,57.1,57.62,2.04,2.06,4.66,3.03,7.07,1.38,2.28-1.56,3.96-4,6.06-6.22ZM243.41,385.98c-1.79-2.66-2.85-4.91-4.49-6.58-17.73-18.03-35.55-35.97-53.36-53.92-.79-.79-1.57-1.63-2.5-2.23-4.6-3.03-11.02-.17-11.02,5.29,0,2.37,1.6,5.24,3.35,7.04,17.66,18.09,35.51,36.01,53.31,53.97.79.79,1.55,2.03,2.48,2.18,2.44.41,5.32,1.15,7.34.24,1.96-.88,3.08-3.65,4.88-5.98ZM262.16,367.01c-1.81-2.65-2.94-4.99-4.67-6.74-17.66-17.93-35.42-35.76-53.16-53.61-.79-.79-1.56-1.63-2.48-2.26-3.96-2.74-8.98-1.1-10.71,3.4-1.44,3.77.35,6.43,2.85,8.95,17.73,17.86,35.43,35.75,53.16,53.61.96.97,1.93,2.4,3.08,2.61,2.41.44,5.28.95,7.31.01,1.86-.86,2.87-3.57,4.61-5.96ZM216.19,283.2c-2.22,1.86-4.71,3.15-6,5.2-1.97,3.13-.62,6.24,1.87,8.75,18.33,18.48,36.66,36.97,55.04,55.41,3.46,3.47,7.58,3.65,10.61.72,2.97-2.88,2.85-7.58-.51-10.97-18.3-18.51-36.63-37-55.03-55.41-1.39-1.4-3.43-2.15-5.97-3.68ZM268.69,265.95l.87.36c.36-.32.76-.6,1.08-.95,13.44-14.79,26.19-30.16,36.28-47.44,4.28-7.34,7.42-15.42,10.32-23.44,1.04-2.87.45-6.73-.5-9.8-1.24-4.04-3.99-4.76-7.13-1.95-3.21,2.87-6.2,6.18-8.55,9.78-11.31,17.3-18.76,36.45-26.04,55.65-2.23,5.89-4.22,11.86-6.32,17.79ZM217.59,408.27c-.21-.12-.43-.24-.64-.36-.81,1.16-1.64,2.31-2.43,3.48-11.34,16.82-22.66,33.66-34.02,50.47-8.15,12.06-19.23,20.03-33.41,23.43-4.02.97-8.19,1.32-13.11,2.08,6.89,2.76,13.2,4.01,19.72,3.34,17.02-1.73,29.11-10.52,36.54-25.89,8.6-17.79,17.28-35.54,25.92-53.31.51-1.06.95-2.16,1.43-3.23ZM272.28,373.79c11.97,5.49,23.93,11,35.9,16.46,4.63,2.11,8.06,1.15,9.77-2.64,1.59-3.52.03-6.94-4.29-8.94-9.48-4.4-18.97-8.75-28.51-13-1.09-.49-2.59-.56-3.76-.27-2.62.65-5.16,1.66-7.98,2.6-.32,1.66-.7,3.6-1.13,5.8ZM260.42,385.48c-5.27,1.12-5.25,1.13-6.64,5.83-.32,1.07-.97,2.06-1.17,3.14-.24,1.25-.57,2.71-.15,3.81,3.09,8.14,6.29,16.23,9.6,24.29,1.55,3.78,4.83,5.19,8.13,3.85,2.97-1.2,4.54-4.69,3.18-8.2-4.19-10.89-8.58-21.71-12.95-32.72Z"/>
</svg>