<?xml version="1.0" encoding="UTF-8"?>
<svg id="Layer_2" data-name="Layer 2" xmlns="http://www.w3.org/2000/svg" viewBox="0 0 595.28 841.89">
  <defs>
    <style>
      .cls-1 {
        fill: #fff;
        stroke-width: 0px;
      }
    </style>
  </defs>
  <path class="cls-1" d="M207.22,240.41c1.64,2.86,3.84,5.53,4.82,8.6,6.56,20.62,13.01,41.31,15.97,62.82,1.64,11.93,2.47,23.98,3.7,36.33h-53.38c0-4.27-.2-8.55.03-12.8,1.66-30.82,10.11-60.18,19.46-89.33.67-2.07,2.55-3.76,3.87-5.62,1.84,0,3.69,0,5.53,0Z"/>
  <path class="cls-1" d="M164.1,577.15v-147.79h80.69v147.79h-80.69Z"/>
  <path class="cls-1" d="M339.02,456.24v121.06h-80.4v-121.06h80.4Z"/>
  <path class="cls-1" d="M433.54,483.19v94.04h-80.68v-94.04h80.68Z"/>
  <path class="cls-1" d="M165.51,590.98h77.93c-1.25,4.99-2.58,9.72-3.53,14.53-.27,1.39.12,3.36.98,4.47,5.23,6.72,6.04,20.11,1.31,27.23-3.19,4.8-7.73,7.46-13.55,7.48-16.17.06-32.34.08-48.52-.01-7.36-.04-14.02-5.06-15.44-12.28-1.58-8.07-2.13-16.21,4.03-23.13.71-.79.59-2.66.32-3.92-1.03-4.71-2.29-9.37-3.54-14.37Z"/>
  <path class="cls-1" d="M354.16,590.99h77.98c-1.26,5.01-2.61,9.66-3.51,14.4-.28,1.49.2,3.57,1.13,4.77,5.39,6.96,5.82,20.92.53,27.92-3.19,4.22-7.48,6.59-12.82,6.61-16.17.05-32.35.07-48.52,0-7.23-.03-13.92-4.78-15.42-11.79-1.74-8.16-2.41-16.44,3.83-23.53.72-.81.67-2.67.39-3.91-1.03-4.72-2.31-9.39-3.58-14.45Z"/>
  <path class="cls-1" d="M259.87,591h77.86c-1.24,5.16-2.51,9.95-3.47,14.81-.25,1.28.06,3.08.83,4.08,4.88,6.3,5.99,19.67,1.89,26.54-3.12,5.23-7.74,8.21-13.89,8.25-16.18.09-32.36.1-48.53,0-8.75-.06-15.64-6.84-16.05-15.68-.33-7.08-1.03-14.3,4.82-19.97.51-.5.4-1.92.2-2.83-1.13-4.97-2.37-9.9-3.67-15.21Z"/>
  <path class="cls-1" d="M271.63,375.14c1.07-11.25,1.88-21.98,3.15-32.66,2.82-23.7,10.3-46.28,17.05-69.03,1.06-3.56,3.09-6.21,7.18-6.11,3.89.09,5.89,2.68,6.78,6.11,5.52,21.17,11.59,42.23,16.18,63.6,2.52,11.73,2.49,24.01,3.59,36.04.06.61-.11,1.24-.19,2.05h-53.74Z"/>
  <path class="cls-1" d="M420.36,402.08h-54c.51-7.76.84-15.33,1.52-22.86,2.41-26.57,10.08-51.94,17.86-77.28.31-1,.33-2.33,1-2.94,1.94-1.75,3.95-4.03,6.28-4.56,3.04-.69,5.5,1.55,6.59,4.52,1.17,3.19,1.99,6.52,3,9.77,5.84,18.93,11.52,37.92,14.17,57.61,1.57,11.7,2.38,23.5,3.58,35.74Z"/>
  <path class="cls-1" d="M231.61,361.78c0,9.7-.14,18.9.09,28.08.06,2.64.78,5.42,1.87,7.84,2.63,5.83,5.65,11.49,8.74,17.67h-75.63c2.15-4.32,3.97-8.63,6.36-12.61,3.51-5.84,4.76-11.97,4.39-18.75-.4-7.3-.09-14.64-.09-22.23h54.28Z"/>
  <path class="cls-1" d="M430.99,469.36h-75.64c3.17-6.41,6.27-12.42,9.09-18.56.89-1.94,1.48-4.2,1.51-6.33.16-9.43.07-18.87.07-28.58h54.28c0,5.2.42,10.45-.09,15.61-1.1,11.25,1.21,21.53,7.33,31.02,1.26,1.95,2.11,4.16,3.44,6.84Z"/>
  <path class="cls-1" d="M271.88,388.79h53.89c0,6.99.36,13.81-.09,20.58-.52,7.75,1.04,14.73,5.12,21.33,2.18,3.54,3.76,7.45,5.81,11.57h-75.51c2.16-4.4,3.99-8.87,6.46-12.95,3.54-5.84,4.78-11.96,4.41-18.74-.39-7.17-.09-14.38-.09-21.79Z"/>
</svg>