<?xml version="1.0" encoding="UTF-8"?>
<svg id="Layer_2" data-name="Layer 2" xmlns="http://www.w3.org/2000/svg" viewBox="0 0 595.28 841.89">
  <defs>
    <style>
      .cls-1 {
        fill: #fff;
        stroke-width: 0px;
      }
    </style>
  </defs>
  <path class="cls-1" d="M566.26,388.51c-1.23,8.71-2.21,17.46-3.74,26.12-8.06,45.85-28.02,85.92-59.6,120.02-38.54,41.61-86.06,67.12-142.23,74.54-74.11,9.8-139.71-10.48-195.13-60.88-42.08-38.26-67.09-86.25-74.9-142.55-15.38-110.85,46.96-215.6,150.37-256.02,21.35-8.34,43.46-13.57,66.39-15.16,1.37-.09,2.71-.57,4.06-.86,10.58,0,21.15,0,31.73,0,1.5.31,2.99.69,4.51.91,9.66,1.39,19.45,2.15,28.97,4.2,49.37,10.66,91.45,34.43,125.81,71.5,31.81,34.32,51.99,74.56,60.03,120.74,1.48,8.52,2.5,17.13,3.73,25.7v31.73ZM327.47,149.67c-122.66-.21-223.04,100.1-223.09,222.95-.05,122.63,99.5,222.86,222.57,222.87,123.16.02,222.98-98.48,223.21-222.64.23-123.3-98.65-222.35-222.69-223.18Z"/>
  <path class="cls-1" d="M526.56,372.97c-.65,110.19-90.81,200.01-199.63,198.88-110.49-1.15-198.92-89.79-198.78-199.26.13-109.8,90.29-199.86,199.35-199.16,110.21.71,199.71,90.42,199.06,199.53ZM327.12,555.62c100.66.1,183.09-82.1,183.21-182.71.12-100.82-81.82-183.07-182.57-183.25-101.02-.19-183.35,81.92-183.4,182.89-.04,100.8,81.98,182.97,182.75,183.07Z"/>
  <path class="cls-1" d="M447.28,261.2c-.73,1.79-1.28,3.73-2.25,5.43-26.35,46.24-52.71,92.47-79.21,138.63-1.39,2.42-3.75,4.66-6.18,6.06-45.88,26.35-91.84,52.56-137.8,78.78-5.06,2.89-9.12,2.81-11.91-.31-3.37-3.77-2.35-7.64-.1-11.58,26.25-45.94,52.44-91.91,78.79-137.79,1.47-2.56,3.88-4.98,6.44-6.44,46.02-26.42,92.12-52.69,138.23-78.97,5.3-3.02,9.82-2.43,12.32,1.6.78,1.26,1.05,2.84,1.67,4.6ZM311.33,343.31c15.2,15.21,30.28,30.3,45.45,45.47,19.65-34.4,39.59-69.31,59.53-104.22-.29-.24-.59-.48-.88-.71-34.99,19.98-69.97,39.96-104.11,59.46ZM238.49,460.7c.27.27.53.55.8.82,35.01-19.98,70.02-39.96,104.29-59.51-15.26-15.31-30.31-30.42-45.5-45.68-19.72,34.55-39.65,69.46-59.58,104.37Z"/>
  <path class="cls-1" d="M335.56,229.22c0,4.82.12,9.64-.03,14.45-.18,5.91-3.3,9.43-8.09,9.48-4.82.05-8.13-3.44-8.24-9.31-.17-9.63-.15-19.27,0-28.91.09-5.97,3.19-9.36,8.08-9.4,5.08-.04,8.12,3.43,8.27,9.7.11,4.66.02,9.33.02,13.99Z"/>
  <path class="cls-1" d="M183.66,380.85c-4.51,0-9.02.07-13.52-.02-6.33-.13-9.84-3.06-9.89-8.08-.05-5.08,3.42-8.2,9.67-8.28,9.32-.12,18.65-.11,27.98,0,6.28.07,9.91,3.13,9.97,8.07.07,5.14-3.63,8.2-10.22,8.3-4.66.08-9.33.01-13.99.01Z"/>
  <path class="cls-1" d="M470.71,380.85c-4.82,0-9.64.12-14.45-.03-5.92-.19-9.4-3.32-9.42-8.15-.01-4.82,3.47-8.08,9.37-8.18,9.63-.16,19.27-.16,28.91,0,5.97.1,9.33,3.22,9.34,8.14,0,4.92-3.35,7.89-9.29,8.22-.31.02-.62,0-.93,0-4.51,0-9.02,0-13.52,0Z"/>
  <path class="cls-1" d="M319.15,516.09c0-4.82-.12-9.64.03-14.45.18-5.92,3.28-9.44,8.07-9.5,4.83-.06,8.15,3.42,8.26,9.29.17,9.63.15,19.27.01,28.91-.09,5.97-3.18,9.37-8.06,9.42-5.08.05-8.13-3.42-8.29-9.68-.11-4.66-.02-9.33-.02-13.99Z"/>
</svg>