<?xml version="1.0" encoding="UTF-8"?>
<svg id="Layer_3" data-name="Layer 3" xmlns="http://www.w3.org/2000/svg" viewBox="0 0 595.28 841.89">
  <defs>
    <style>
      .cls-1 {
        fill: #fff;
        stroke-width: 0px;
      }
    </style>
  </defs>
  <path class="cls-1" d="M312.76,716.83c-2.55-16.14-5.11-32.29-7.76-49.08-8.89-.29-17.8-.69-26.72-.81-2.67-.04-4.44-.44-4.97-3.43-.28-1.59-1.08-3.1-1.72-4.62-3.02-7.09-5.22-8.47-12.92-7.13-21.53,3.75-43.03,7.67-64.54,11.56-5.84,1.06-11.66,2.24-17.48,3.4-3.06.61-4.84-.32-4.89-3.7-.1-6.58-1.51-13.47,0-19.64,1.31-5.35,5.47-10.27,9.16-14.72,21.69-26.15,43.62-52.1,65.46-78.14,3.51-4.19,6.75-8.63,10.5-12.6,2.38-2.52,3.12-5.09,3.05-8.44-.19-8.81-.07-17.63-.07-27.37-47.95,36.13-95.36,71.85-144.08,108.56-3.37-8.43-6.45-15.12-8.7-22.08-2.23-6.88-3.48-14.07-5.44-21.04-1.42-5.06.26-9.12,3.34-12.86,18.62-22.65,37.58-45.03,55.84-67.98,16.07-20.21,31.55-40.9,46.94-61.64,10.56-14.23,20.07-29.24,30.9-43.24,5.76-7.44,6.53-15.57,7.21-24.11.71-8.9,1.41-17.8,2.16-27.22,8.53,0,16.8-.12,25.07.06,3.04.07,4.56-.64,4.79-3.97.86-12.54,1.92-25.07,2.9-37.6,1.61-20.49,3.01-41,4.9-61.47,1.17-12.68,1.87-25.6,4.96-37.86,4.1-16.26,10.24-32.02,15.69-47.93,1.81-5.28,4.18-10.37,6.93-17.09,3.51,8.53,6.77,15.59,9.35,22.89,4.56,12.88,9.47,25.72,12.8,38.93,2.81,11.17,3.91,22.82,5.18,34.33,1.84,16.63,3.39,33.3,4.61,49.99.87,11.91.8,23.89,1.54,35.81.48,7.89,1.64,15.74,2.51,23.81h29.25c.72,7.23,1.5,14.23,2.1,21.25.48,5.62.97,11.25,1.05,16.88.09,6.1,4.36,9.91,7.5,14.2,25.71,35.13,51.22,70.42,77.61,105.04,12.64,16.59,27.07,31.8,40.6,47.72,5.04,5.93,9.78,12.11,14.68,18.15,4.18,5.15,5.66,10.94,3.37,17.22-4.35,11.93-8.95,23.76-13.48,35.61-.28.74-.93,1.34-2.25,3.17-47.5-35.76-94.87-71.43-143.02-107.68,0,6.65.61,12.91-.14,19-1.21,9.76,2.7,16.68,9.01,23.83,16.34,18.51,31.81,37.77,47.65,56.71,9.57,11.44,19.1,22.92,28.84,34.21,2.54,2.95,3.89,5.87,3.6,9.81-.44,5.95-.41,11.93-.69,17.89-.14,3.06-2.07,3.85-4.8,3.31-17.68-3.47-35.35-7.02-53.04-10.4-10.23-1.95-20.49-3.77-30.77-5.41-5.92-.95-7.55.39-9.58,6.69q-3.08,9.58-12.99,9.7c-6.17.09-12.34.53-18.49.31-3-.1-4.15.84-4.52,3.61-1.64,12.45-3.31,24.9-5.08,37.34-.39,2.77-1.25,5.47-1.9,8.2h-1Z"/>
</svg>