<?xml version="1.0" encoding="UTF-8"?>
<svg id="Layer_2" data-name="Layer 2" xmlns="http://www.w3.org/2000/svg" viewBox="0 0 595.28 841.89">
  <defs>
    <style>
      .cls-1 {
        fill: #fff;
        stroke-width: 0px;
      }
    </style>
  </defs>
  <path class="cls-1" d="M476.95,435.21c2.74,4.55,5.13,8.45,7.45,12.39,5.95,10.11.11,20.5-11.64,20.51-106.05.03-212.1.01-318.14.03-5.38,0-9.82-1.79-12.53-6.63-2.71-4.82-2.04-9.54.86-14.11,2.39-3.77,4.64-7.63,7.39-12.18-3.76,0-6.91.01-10.06,0-9.13-.04-14.48-5.3-14.48-14.35-.02-38.81-.02-77.62,0-116.43,0-9.06,5.35-14.29,14.49-14.33,3.1-.01,6.2,0,10.05,0-2.62-4.31-4.86-8.13-7.23-11.86-2.96-4.66-3.83-9.46-1.02-14.45,2.81-4.99,7.41-6.63,12.91-6.63,105.8.02,211.6.02,317.4,0,5.52,0,10.09,1.73,12.83,6.76,2.64,4.86,1.89,9.57-1,14.13-2.38,3.76-4.63,7.59-7.32,12.04,3.99,0,7.3-.03,10.61,0,8.39.08,13.91,5.43,13.92,13.78.05,39.18.05,78.37,0,117.55,0,8.34-5.53,13.69-13.92,13.78-3.23.03-6.47,0-10.55,0ZM313.89,265.35c-52.4,0-104.8-.03-157.19.1-2.49,0-5.77.74-7.28,2.4-2.26,2.5.19,5.29,1.68,7.73,3.12,5.11,6.24,10.2,9.29,15.35,2.6,4.39.99,7.27-4.05,7.31-5.49.04-10.98-.04-16.47.03-4.1.05-5.92,1.85-5.92,5.99-.03,38.93-.03,77.86,0,116.8,0,4.13,1.83,5.93,5.94,5.98,5.36.07,10.73,0,16.09.02,5.55.02,7.1,2.82,4.21,7.64-3.46,5.77-7.04,11.47-10.45,17.27-2.51,4.28-.59,7.7,4.35,7.97,1,.05,2,.01,2.99.01,104.3,0,208.59,0,312.89,0,.87,0,1.75.02,2.62,0,5.6-.15,7.52-3.62,4.61-8.48-3.45-5.77-7.03-11.47-10.47-17.25-2.48-4.17-.85-7.11,3.93-7.15,5.49-.05,10.98.03,16.47-.03,4.33-.05,6.13-1.81,6.13-6.18.03-38.81.03-77.61,0-116.42,0-4.37-1.79-6.13-6.12-6.18-5.24-.06-10.49.15-15.71-.1-1.79-.09-4.48-.75-5.04-1.96-.69-1.48-.09-4.08.82-5.71,3.26-5.88,6.97-11.5,10.35-17.32,2.38-4.1.47-7.5-4.23-7.8-1.12-.07-2.24-.02-3.37-.02-52.02,0-104.05,0-156.07,0Z"/>
  <path class="cls-1" d="M183.44,339.22c7.17-.07,12.98,2.77,17.91,7.92,1.11,1.16,3.06,1.59,4.7,2.14.78.27,1.74-.04,2.6.06,5.67.64,9.81-.91,13.83-5.71,8.69-10.38,25.24-9.67,33.36.98,2.77,3.63,5.74,4.67,10.09,4.87,5.71.26,8.94-.93,11.95-6.68,7.74-14.77,21.01-21.85,37.56-21.08,16.41.77,28.44,9.18,35.35,24.19,1.3,2.83,2.7,3.62,5.52,3.46,3.61-.21,7.24-.18,10.85-.01,3.05.15,5.15-1.05,7-3.42,10.16-13.05,26.5-12.83,36.92.2,1.28,1.6,3.79,2.52,5.9,3.06,1.99.51,4.22.01,6.33.14,5.15.29,9.28-.51,13.57-4.58,9.37-8.89,24.23-7.14,32.67,2.74,8.43,9.87,7.18,24.56-2.83,33.16-9.57,8.22-24.11,7.11-32.71-2.3-1.14-1.25-3.2-1.85-4.95-2.31-1.4-.37-2.98.03-4.47-.09-6.69-.56-11.9.59-16.91,6.48-8.5,10.01-24.77,8.46-32.73-2.09-2.44-3.24-5.11-4.72-9.14-4.43-3.97.28-8.6-1.16-11.79.44-2.95,1.48-4.32,6.02-6.49,9.15-8.91,12.81-21.33,19.21-36.77,18.08-15.86-1.16-27.59-9.47-34.48-23.92-1.44-3.02-3.01-4.19-6.14-3.7-.97.15-2,.12-2.99,0-4.97-.59-8.44.99-11.77,5.19-8.6,10.85-25.62,10.37-34.17-.74-2.61-3.39-5.37-4.92-9.47-4.45-1.11.13-2.26.13-3.36,0-3.44-.39-5.88.72-8.39,3.38-7.28,7.73-18.95,9-28.16,3.64-9.19-5.35-13.59-15.97-10.9-26.34,2.64-10.18,11.91-17.35,22.53-17.43ZM269.07,367.8c1.75,0,3.49,0,5.24,0q6.02,0,8.13,5.84c4.75,13.18,17.67,22.14,31.69,21.97,14.09-.18,26.18-9.33,30.77-23.57.95-2.96,2.45-4.34,5.58-4.28,6.11.12,12.22.05,18.33.06,4.71,0,8.35,2.1,11.17,5.78,7.43,9.69,17.34,9.75,24.8.11,3.03-3.91,6.86-5.99,11.87-5.92,4.99.07,9.99.18,14.96-.05,3.45-.16,5.73.86,7.73,3.88,3.69,5.59,11.01,7.69,17.24,5.54,6.17-2.13,10.45-8.1,10.41-14.53-.04-6.62-4.51-12.63-10.84-14.61-6.26-1.96-13.24.14-16.85,5.71-2,3.09-4.33,3.98-7.75,3.84-4.86-.21-9.73-.14-14.59-.04-5.31.11-9.3-2.1-12.46-6.28-6.97-9.2-17.35-9.11-24.33.2-2.98,3.96-6.8,6.08-11.79,6.06-5.49-.03-10.99-.25-16.46.08-4.26.26-6.19-1.45-7.48-5.42-4.39-13.51-16.8-22.39-30.78-22.47-14.41-.08-27.18,9.16-31.49,23.08-1.06,3.42-2.76,4.96-6.39,4.79-4.6-.22-9.23-.06-13.84-.1-4.41-.04-8.27-1.75-10.52-5.44-6.22-10.2-19.87-9.51-25.43-.26-2.38,3.96-6.42,5.75-11.13,5.73-3.62-.01-7.25-.18-10.85.08-3.72.26-6.19-.88-8.34-4.16-3.49-5.31-10.59-7.29-16.63-5.37-6.29,2-10.61,7.74-10.71,14.26-.11,6.86,3.93,12.66,10.35,14.87,6.4,2.21,13.56-.03,17.45-5.86,1.73-2.59,3.69-3.71,6.77-3.55,3.86.2,7.73.1,11.6.05,5.01-.07,8.81,2.09,11.82,6,7.29,9.46,17.48,9.46,24.58,0,2.98-3.97,6.82-6.07,11.81-6,2.12.03,4.24,0,6.36,0Z"/>
</svg>