<?xml version="1.0" encoding="UTF-8"?>
<svg id="Layer_2" data-name="Layer 2" xmlns="http://www.w3.org/2000/svg" viewBox="0 0 595.28 841.89">
  <defs>
    <style>
      .cls-1 {
        fill: #fff;
        stroke-width: 0px;
      }
    </style>
  </defs>
  <path class="cls-1" d="M287.34,134.48c7.27,1.51,14.77,2.36,21.79,4.65,45.11,14.68,72.22,45.54,81.27,92.06,1.32,6.79,1.54,13.88,1.56,20.84.14,39.16-.03,78.33.17,117.49.03,5.96,2.69,10.95,8.79,13.57,27.24,11.68,44.7,40.93,41.96,70.01-2.98,31.58-25.31,56.85-55.82,63.17-40.19,8.33-79.12-19.28-84.06-59.61-3.91-31.94,12.82-61.36,42.26-73.86,4.91-2.08,7.4-6.7,7.69-10.46.94-11.98.35-24.08.35-36.11-51,38.04-101.63,37.99-152.69.17-.05.62-.21,1.64-.21,2.66-.02,10.35-.35,20.72.12,31.05.25,5.47,2.68,10.36,8.3,12.76,27.81,11.88,45.07,40.29,42.31,70.45-2.9,31.72-25.37,56.7-55.58,62.92-39.42,8.11-77.47-17.81-83.98-57.22-5.29-32.04,11.88-63.24,41.89-76.27,5.37-2.33,8.05-7.14,8.09-12.5.26-31.8.08-63.61.15-95.42.03-11.47-.14-22.97.65-34.39,1.98-28.65,13.67-53.03,34.08-73.11,18.84-18.53,41.54-29.24,67.85-32.21.71-.08,1.39-.44,2.08-.67,6.99,0,13.97,0,20.96,0ZM378.85,249.37c.1-56.21-45.68-102.09-101.88-102.11-56.29-.02-102.01,45.6-102.11,101.9-.1,56.33,45.31,102.33,101.12,102.43,57.09.1,102.77-45.27,102.87-102.21ZM346.75,396.76c-18.2,7.56-36.45,32.61-30.18,63,5.4,26.17,31.14,46.44,57.53,45.11,30.76-1.55,53.34-23.29,55.76-54.24,2.06-26.29-16.12-48.33-31.9-53.93,0,3.51.39,6.92-.13,10.18-.37,2.3-.06,3.47,1.78,4.94,13.65,10.89,19.63,25,17.25,42.44-3.12,22.84-23.65,39.22-47.49,37.96-22.19-1.17-41.18-20.88-41.5-43.38-.21-15.15,5.75-27.53,17.67-37.01.97-.77,2.26-1.99,2.24-2.98-.09-3.96-.64-7.9-1.04-12.09ZM206.79,396.48c-.18,3.79,0,7.31-.64,10.68-.43,2.25.1,3.26,1.78,4.6,13.64,10.89,19.71,24.97,17.32,42.41-3.14,22.93-23.51,39.23-47.41,38.05-22.17-1.1-41.22-20.78-41.58-43.29-.24-15.15,5.69-27.55,17.6-37.04.98-.78,2.34-1.98,2.32-2.95-.09-4.04-.65-8.08-1.03-12.12-14.95,5.76-34.71,28.13-31.02,58.51,3.26,26.81,26.59,48.4,54.95,49.46,27.1,1.01,51.26-16.7,57.92-44.49,6.05-25.25-7.61-54.25-30.2-63.81ZM163.34,421.34c-11.27,6.86-16.69,21.77-12.89,35.09,3.84,13.49,17.05,23.27,31.02,23,14.13-.28,26.71-10.03,30.27-23.46,3.54-13.36-2.05-28.28-12.93-34.54-12.65,9.37-23.79,9.39-35.47-.09ZM354.89,421.31c-11.74,7.67-16.84,22.56-12.5,35.97,4.36,13.46,17.6,22.84,31.23,22.13,15.15-.79,27.31-11.12,30.33-25.76,2.54-12.33-3.77-27.2-13.66-32.2-11.89,9.38-23.44,9.37-35.4-.14ZM168.11,396.34h.21c0,2.25-.09,4.5.02,6.73.33,7.01,5.65,12.17,12.51,12.24,6.94.06,12.48-4.87,12.86-11.84.26-4.71.25-9.46,0-14.18-.34-6.49-5.29-11.33-11.73-11.9-6.2-.54-11.73,3.34-13.15,9.71-.67,2.99-.51,6.16-.73,9.25ZM359.94,396.29c0,2.24-.08,4.48.02,6.72.31,7.02,5.61,12.22,12.44,12.3,7.1.09,12.65-5.01,12.96-12.15.19-4.6.22-9.22-.02-13.81-.36-6.91-6.04-12.11-12.78-12.03-6.79.08-12.23,5.33-12.59,12.25-.12,2.23-.02,4.48-.02,6.72ZM378.63,303.88c-3.99,5.83-7.81,11.28-11.45,16.84-.61.93-.67,2.35-.67,3.55-.05,12.46-.03,24.91-.02,37.37,0,1.08.13,2.17.19,2.98h11.95v-60.74ZM186.92,364.62c.05-.19.28-.66.28-1.13.02-13.46.04-26.91,0-40.37,0-.82-.21-1.77-.66-2.44-3.7-5.52-7.48-10.99-11.46-16.82v60.75h11.84Z"/>
  <path class="cls-1" d="M360.38,227.81c1.39,5.12,2.78,11.27,4.77,17.21,1.06,3.15,1.4,5.87-.08,8.92-3.29,6.76-4.43,13.98-3.73,21.44.33,3.51-.67,6.24-3.21,8.71-5.38,5.24-8.91,11.67-10.81,18.9-.84,3.2-2.6,5.22-5.54,6.52-7,3.11-12.73,7.85-17.01,14.17-1.94,2.87-4.39,4.27-7.7,4.51-7.52.54-14.32,3.13-20.43,7.43-2.77,1.95-5.49,2.51-8.76,1.58-7.22-2.05-14.52-2.07-21.76-.07-3.38.93-6.22.47-9.12-1.59-5.99-4.27-12.71-6.77-20.09-7.31-3.47-.25-6-1.71-8.01-4.68-4.21-6.21-9.84-10.9-16.71-13.97-3.07-1.37-4.91-3.41-5.79-6.75-1.94-7.36-5.64-13.81-11.12-19.15-2.33-2.28-3.2-4.86-2.85-8.09.82-7.47-.46-14.67-3.62-21.45-1.49-3.2-1.56-6.07-.06-9.26,3.25-6.9,4.18-14.19,3.83-21.82-.11-2.44.91-5.52,2.52-7.33,5.33-5.97,9.24-12.54,11.61-20.22.68-2.2,2.74-4.56,4.8-5.63,7.13-3.68,13-8.59,17.93-14.93,1.49-1.91,4.26-3.54,6.66-3.9,8.03-1.23,15.37-3.77,22.15-8.31,1.73-1.16,4.61-1.57,6.67-1.08,8.06,1.9,15.97,1.86,24.02-.03,1.97-.46,4.72-.12,6.35.99,6.97,4.74,14.57,7.33,22.86,8.52,2.17.31,4.68,1.88,6.01,3.64,4.86,6.39,10.59,11.57,17.93,14.85,2.86,1.28,4.02,3.54,5.25,6.31,2.54,5.74,5.15,11.65,8.91,16.61,3.33,4.39,6.55,8.18,4.08,15.24ZM289.09,323.14c.05.37.1.73.14,1.1,1.09-.51,2.16-1.08,3.28-1.51,6.12-2.35,12.17-4.99,18.44-6.83,2.54-.74,4.27-1.83,6.17-3.55,5.05-4.56,10.49-8.7,15.71-13.08,1.15-.97,2.25-2.13,3.01-3.42,3.58-6.07,7.08-12.2,10.49-18.37.79-1.43,1.34-3.06,1.65-4.67,1.32-6.92,2.56-13.87,3.71-20.82.27-1.61.3-3.33.04-4.94-1.15-7.08-2.4-14.15-3.75-21.2-.31-1.6-.97-3.19-1.76-4.62-3.36-6.06-6.79-12.08-10.31-18.05-.82-1.39-2.02-2.64-3.25-3.7-5.36-4.6-10.77-9.13-16.23-13.61-1.28-1.05-2.73-2.04-4.26-2.62-6.59-2.49-13.22-4.87-19.87-7.17-1.54-.53-3.24-.81-4.87-.83-7.05-.09-14.11-.08-21.16,0-1.63.02-3.34.28-4.88.81-6.65,2.3-13.28,4.69-19.87,7.17-1.44.54-2.84,1.37-4.03,2.34-5.65,4.62-11.25,9.32-16.81,14.05-1.07.91-2.11,1.98-2.81,3.18-3.62,6.19-7.17,12.43-10.65,18.7-.73,1.33-1.26,2.84-1.54,4.33-1.29,6.93-2.53,13.87-3.63,20.84-.29,1.85-.25,3.82.04,5.67,1.09,6.84,2.31,13.67,3.59,20.47.3,1.61.85,3.25,1.64,4.68,3.41,6.17,6.93,12.28,10.49,18.37.7,1.2,1.64,2.35,2.7,3.26,5.65,4.81,11.36,9.57,17.1,14.28,1.09.89,2.37,1.71,3.69,2.15,5.39,1.82,11.06,3,16.19,5.36,4.06,1.86,7.65,2.97,12.29,2.4,6.34-.78,12.85-.2,19.29-.2Z"/>
  <path class="cls-1" d="M276.09,188.96c2.83-.2,4.73-.63,6.55-.41,3.37.42,6.73,1.08,10.04,1.88,10.63,2.56,19.35,8.32,27.33,15.69,2.87,2.65,5.14,5.35,7.29,8.62,5.85,8.91,9.28,18.39,10.44,29,.42,3.86,1.11,7.38-.06,11.26-1.07,3.53-1.03,7.39-1.89,11-.7,2.94-1.78,5.85-3.07,8.59-4.8,10.13-11.72,18.44-20.87,25.1-2.94,2.14-5.5,4.53-9.19,5.23-1.09.21-2.29.39-3.19.97-10.08,6.47-21.48,3.72-32.34,4.65-1.27.11-2.61-.65-3.92-1-12.36-3.32-22.65-10.2-32.02-18.64-.37-.33-.99-.51-1.17-.91-3.76-8.64-10.78-15.41-12.51-25.42-1.79-10.32-2.2-20.2.15-30.4.87-3.78,1.9-7.19,3.7-10.71,4.9-9.59,11.5-17.38,20.13-23.83,3.34-2.5,6.29-5.1,10.48-5.9,1.22-.23,2.46-.53,3.57-1.07,6.83-3.34,13.77-5.85,20.58-3.7ZM283.94,297.09c11.57-1.79,21.68-7.49,29.53-16.02,7.91-8.58,11.69-19.9,11.77-31.37.08-11.5-3.6-22.96-11.41-31.53-11.49-12.61-26.44-18.61-43.73-16.52-11.86,1.43-21.82,7.64-29.73,16.12-7.99,8.56-11.73,19.84-11.9,31.31-.17,11.52,3.43,23.15,11.35,31.54,11.61,12.3,26.19,19.46,44.12,16.47Z"/>
</svg>