<?xml version="1.0" encoding="UTF-8"?>
<svg id="Layer_2" data-name="Layer 2" xmlns="http://www.w3.org/2000/svg" viewBox="0 0 595.28 841.89">
  <defs>
    <style>
      .cls-1 {
        fill: #fff;
        stroke-width: 0px;
      }
    </style>
  </defs>
  <path class="cls-1" d="M418.69,494.83c-2.71-2.12-5.66-4.01-8.1-6.41-13.4-13.23-26.69-26.59-40-39.92-6.29-6.3-6.25-12.5.07-18.86,1.58-1.59,3.17-3.18,4.76-4.76,5.98-5.95,10.49-6.49,17.32-2.27,19.34-19.34,38.63-38.63,58.01-58.01-4.99-10.66-15.87-15.61-27.78-12.36-9.1,2.49-16.8,7.59-23.87,13.54-13.07,11-25.71,22.5-38.81,33.46-12.58,10.52-26.02,19.7-42.21,23.96-10.22,2.69-20.47,2.87-30.62-.02-3-.85-4.96-.25-7.29,1.66-20.65,16.92-41.97,32.93-65.06,46.42-4.51,2.64-9.2,4.96-13.8,7.44-2.71,1.46-5.29,1.47-7.49-.87-2.08-2.21-1.86-4.64-.59-7.25,8.24-16.86,18.77-32.28,29.64-47.48,1.66-2.31,3.34-4.61,5.62-7.74-7.89,2.86-14.75,5.67-21.81,7.84-12.94,3.97-25.95,7.72-39.02,11.23-7.12,1.91-9.96-.63-9.37-7.95,1.1-13.55,7.35-24.67,16.84-34.09,11.16-11.08,24.38-19.33,37.88-27.15,7.11-4.12,14.3-8.11,21.56-11.95,2.53-1.34,3.69-2.8,4.03-5.86,2.23-20.3,8.66-39.53,15.78-58.54,1.34-3.59,4.34-4.98,7.37-3.82,3.27,1.25,4.51,4.15,3.24,8.01-3.25,9.92-6.81,19.74-9.78,29.74-2.04,6.87-3.32,13.97-5.1,21.69,1.56-.61,2.33-.81,3.02-1.19,24.91-13.6,49.83-27.2,74.71-40.87,1.93-1.06,3.72-2.51,5.3-4.06,8.26-8.14,16.48-16.33,24.6-24.62,1.01-1.03,1.93-2.75,1.88-4.1-.41-10.03,2.12-19.37,7.02-27.9,5.94-10.36,12.56-20.33,18.89-30.47.72-1.15,1.49-2.28,2.39-3.65-4.14.44-7.97,1.15-11.82,1.22-20.64.37-36.33-14.36-37.53-35.07-1.69-29.4,19.09-56.29,47.74-61.75,20.36-3.88,39.71,9.91,42.86,30.39,2.26,14.68-1.26,28.03-9.4,40.11-11.63,17.25-23.68,34.22-35.52,51.33-1.13,1.64-2,3.45-3.13,5.09-8.94,13-11.65,27.2-8.76,42.68,1.14,6.1,1.61,12.35,2.13,18.55.21,2.54,1.3,3.82,3.65,4.39,5.57,1.36,11.06,1.26,16.59-.38,2.18-.65,2.89-1.77,3.11-3.94,1.89-19.21,7.59-36.88,22.04-50.54,7.06-6.67,14.65-12.78,22.01-19.13,1.23-1.06,2.48-2.1,3.82-3.01,2.92-1.98,6.01-1.57,7.98.94,1.85,2.35,1.51,5.84-1.05,8.02-4.37,3.71-8.99,7.13-13.3,10.92-6.75,5.92-11.24,13.19-12.79,22.2-2.08,12.13,5.64,22.13,17.91,23.1,8.9.71,17.41-.87,25.49-4.48,21.96-9.8,39.92-24.3,52.19-45.28,3.36-5.75,5.66-11.95,5.89-18.68.47-14.11-9.69-23.02-23.77-21.2-8.01,1.04-15.07,4.1-21.33,9.12-3.99,3.2-7.94,6.44-11.96,9.6-3.43,2.69-6.72,2.61-8.92-.09-2.27-2.78-1.75-5.94,1.71-8.69,8.38-6.63,16.1-14.25,26.4-18.06,8.71-3.23,17.55-4.47,26.71-1.99,14.8,4,23.33,15.73,22.63,31.03-.41,8.92-2.94,17.24-7.51,24.76-15.69,25.79-37.84,43.68-66.58,53.09-8.86,2.9-18.05,3.65-27.26,1.29-12.25-3.13-19.95-10.69-22.51-23.22-.15-.72-.42-1.41-.63-2.12-.39-.06-.77-.12-1.16-.19-1.38,6.5-2.86,12.98-4.09,19.51-.76,4.03-.92,8.18-1.69,12.21-1.65,8.57-6.05,15.46-13.32,20.41-1.03.7-2.07,1.41-3.18,1.95-18.19,8.76-33.21,21.51-47.42,35.75-15.13,15.17-31.51,29.1-47.34,43.57-.54.5-1.09.99-2.03,1.85,9.17,1.9,17.55.45,25.78-2.48,13.27-4.72,24.37-12.95,34.93-21.95,11.96-10.19,23.59-20.76,35.62-30.88,8.61-7.24,17.93-13.49,29.04-16.39,14.41-3.75,26.56-.08,36.31,11.24,1.05,1.22,2.02,2.52,2.91,3.64,3.22-3.3,6.43-6.57,9.74-9.96-4.09-7.68-3.54-11.36,3.05-17.95,1.85-1.85,3.65-3.77,5.58-5.53,4.86-4.43,11.37-4.41,16.17.11,3.18,2.99,6.25,6.1,9.26,9.26,2.83,2.96,2.89,6.17.36,8.59-2.32,2.21-5.67,2.13-8.35-.48-3.12-3.04-6.05-6.28-9.1-9.47-2.8,2.79-5.25,5.24-7.38,7.37,14.71,14.76,29.37,29.45,44.02,44.15,2.1-2.08,4.54-4.5,7.28-7.21-5.27-5.26-10.47-10.43-15.64-15.62-.97-.97-2.02-1.9-2.79-3.01-1.79-2.6-1.62-5.24.66-7.43,2.16-2.07,5.1-2.49,7.12-.43,7.54,7.7,14.78,15.7,22.14,23.59v5.99c-2.9,3.52-5.59,7.24-8.74,10.53-6.68,6.96-10.08,7.39-18.17,3.11-25.44,25.43-50.82,50.81-76.4,76.38,3.36,4.37,4.47,9.64.53,14.12-4.12,4.69-9.29,8.47-14,12.64h-5.99ZM361.61,286.28c-1.49,1.39-2.41,2.17-3.26,3.04-21.97,22.47-43.94,44.94-65.9,67.42-3.15,3.22-6.58,3.73-9.12,1.24-2.45-2.39-2.22-5.72.71-8.9,3.97-4.31,8-8.57,11.99-12.86,1.25-1.34,2.48-2.7,3.72-4.05-22.16,11.04-43.96,22.25-65.33,34.23-14.09,7.9-27.82,16.54-41.22,25.57-9.26,6.24-16.95,14.33-21.13,25.08-.59,1.53-.88,3.17-1.4,5.13,21.22-5.21,40.93-12.79,60.69-20.29,8.12-3.08,14.39-7.7,19.51-14.66,5.09-6.91,11.03-13.19,16.6-19.75,1.93-2.27,4.64-3.24,6.97-1.69,1.66,1.1,2.95,3.63,3.2,5.67.18,1.44-1.45,3.32-2.64,4.69-20.77,24.09-40.64,48.87-57.93,75.63-1.43,2.21-2.76,4.48-4.14,6.72,3.58-1.46,6.66-3.3,9.64-5.28,49.81-33.07,93.64-73.17,135.62-115.43,5.16-5.2,7.46-11.78,6.79-19.12-.96-10.52-2.18-21.02-3.38-32.39ZM349.81,169.7c0,1-.04,2,0,2.99.79,16.46,14.12,27.18,30.34,24.42,23.35-3.98,41.61-29.53,37.74-52.78-2.38-14.31-14.88-23.39-29-21.07-21.52,3.52-39.11,24.42-39.08,46.44ZM505.93,383.98c-9.87-9.89-19.26-19.3-28.8-28.86-7,7.02-14.29,14.34-21.59,21.66q-6.63,6.64-3.13,15.18c4.3,10.51,8.61,21.02,12.84,31.35,7.2-7.2,14.22-14.23,21.46-21.47-6.51-2.67-13.16-5.37-19.79-8.11-4.33-1.79-5.91-4.59-4.61-8.01,1.25-3.29,4.52-4.26,8.84-2.53,7.49,3.01,14.94,6.13,22.47,9.05,1.04.4,2.8.4,3.56-.23,3.25-2.69,6.24-5.69,8.75-8.03ZM430.05,459.36c8.36-8.38,16.83-16.82,25.19-25.37.66-.68,1.02-2.34.67-3.2-5.12-12.8-10.39-25.54-15.99-39.19-2.17,2.47-3.79,4.75-5.83,6.52-2.51,2.18-3.08,4.1-1.59,7.34,3.23,6.99,5.94,14.21,8.77,21.38,1.58,4.02.43,7.03-2.99,8.35-3.12,1.21-5.92-.26-7.54-4.14-2.86-6.83-5.63-13.7-8.28-20.18-6.93,6.93-13.77,13.77-20.47,20.46,9.09,9.08,18.42,18.4,28.06,28.03ZM429.16,475.94c-14.86-14.85-29.46-29.45-43.98-43.96-2.34,2.32-4.86,4.82-6.77,6.71,14.6,14.59,29.28,29.25,44.02,43.98,1.99-1.99,4.36-4.36,6.73-6.73ZM376.81,316.68c-.18,3.37-.37,6.8-.6,10.92,5.56-3.42,10.74-6.6,15.91-9.79-.15-.38-.31-.75-.46-1.13h-14.85Z"/>
  <path class="cls-1" d="M304.96,171.25c-.48,17.3-4.73,32.14-10.14,46.6-6.58,17.57-13.79,34.91-20.78,52.33-1.6,3.98-4.69,5.52-7.89,4.2-3.22-1.33-4.23-4.47-2.66-8.5,7.68-19.68,15.9-39.17,22.87-59.1,3.49-9.99,5.28-20.69,6.81-31.21,1.19-8.15-.38-16.23-6.44-22.6-9.16-9.62-23.08-10.3-34.04-1.23-4.07,3.36-7.29,7.79-10.65,11.93-.61.76-.46,2.79.13,3.75,4.18,6.82,4.49,13.68.22,20.42-21.83,34.38-43.73,68.71-65.65,103.03-3.26,5.1-8.4,6.55-13.2,4.03-4.99-2.61-6.75-7.85-4.19-13.42,17.07-37.05,34.17-74.08,51.34-111.08,3.45-7.43,9.64-10.68,17.72-10.88,1.28-.03,2.82-.99,3.75-1.98,4.87-5.12,8.96-11.19,14.46-15.46,21.51-16.72,50.96-6.39,57.05,19.71.84,3.61,1.01,7.38,1.28,9.45ZM180.79,262.11c.12.12.24.24.37.36.26-.27.57-.5.77-.81,16.79-26.34,33.58-52.68,50.32-79.05,2.82-4.44,2.01-8.6-1.78-10.61-3.88-2.06-7.68-.52-9.95,4.21-3.54,7.4-7,14.84-10.43,22.29-9.78,21.2-19.53,42.41-29.29,63.61Z"/>
  <path class="cls-1" d="M354.21,323.85c.12,3.23-2.81,6.23-6.08,6.25-3.25.01-5.88-2.56-5.98-5.85-.1-3.37,2.28-5.98,5.59-6.14,3.5-.16,6.35,2.36,6.47,5.74Z"/>
</svg>