<?xml version="1.0" encoding="UTF-8"?>
<svg id="Layer_2" data-name="Layer 2" xmlns="http://www.w3.org/2000/svg" viewBox="0 0 595.28 841.89">
  <defs>
    <style>
      .cls-1 {
        fill: #fff;
        stroke-width: 0px;
      }
    </style>
  </defs>
  <path class="cls-1" d="M335.85,223.35c7.19,1,14.39,1.9,21.56,3,48.48,7.45,91.27,27.35,128.15,59.57,44.96,39.28,72.59,88.69,84.44,147.07.96,4.71,1.61,9.48,2.29,14.24.47,3.27.74,6.56,1.15,10.22h-31.64c-1.76-9.4-3.07-18.92-5.34-28.2-16.66-67.87-55.34-118.51-118.01-150.35-3.6-1.83-5.69-1.5-8.55,1.29-8.32,8.12-17,15.88-25.84,24.07-27.1-27.01-54.12-53.95-81.14-80.89,10.98,0,21.96,0,32.94,0Z"/>
  <path class="cls-1" d="M376.14,705.58c-7.71.22-14.68-2.89-20.78-8.22-1.13-.98-2.17-2.06-3.23-3.12-83.97-83.96-167.93-167.92-251.89-251.89-12.22-12.22-14.81-26.6-6.96-39.68,1.86-3.1,4.27-5.95,6.83-8.52,44.28-44.38,88.61-88.72,132.98-133.02,15.26-15.24,32.99-15.2,48.23.03,84.1,84.06,168.18,168.15,252.24,252.24,15.03,15.04,15.1,32.85.12,47.85-44.53,44.6-89.14,89.14-133.68,133.73-6.49,6.5-13.94,10.65-23.87,10.6ZM512.43,538.56c-84.67-84.67-169.63-169.63-254.07-254.07-44.91,44.91-90.15,90.15-135.19,135.19,84.54,84.55,169.43,169.45,254.06,254.08,45.13-45.13,90.39-90.38,135.2-135.2Z"/>
  <path class="cls-1" d="M64.27,500.19h29.83c1.39,8.02,2.42,16.21,4.26,24.21,16.01,69.8,54.97,121.91,119.26,154.51,3.37,1.71,5.4,1.4,8.12-1.24,8.45-8.2,17.23-16.07,25.59-23.8,26.81,26.84,53.43,53.49,80.28,80.37-66.67,2.48-126.54-16.21-177.74-59.62-53.7-45.52-82.65-104.18-89.6-174.42Z"/>
</svg>